<!--?xml version="1.0" encoding="utf-8"?-->
<!-- Generator: Adobe Illustrator 25.2.0, SVG Export Plug-In . SVG Version: 6.00 Build 0)  -->
<svg version="1.1" id="Layer_1" xmlns="http://www.w3.org/2000/svg" xmlns:xlink="http://www.w3.org/1999/xlink" x="0px" y="0px" viewBox="0 0 821.7 1650.2" style="" xml:space="preserve" class="">
<style type="text/css">
	.st0{display:none;}
	.st1{display:inline;}
	.st2{fill:none;stroke:#000000;stroke-miterlimit:10;}
	.st3{fill:#3C4249;stroke:url(#SVGID_1_);stroke-width:4;stroke-miterlimit:10;}
	.st4{fill:#3C4249;stroke:url(#SVGID_2_);stroke-width:4;stroke-miterlimit:10;}
	.st5{fill:none;stroke:url(#SVGID_3_);stroke-width:4;stroke-miterlimit:10;}
	.st6{fill:none;stroke:url(#SVGID_4_);stroke-width:4;stroke-miterlimit:10;}
	.st7{fill:none;stroke:url(#SVGID_5_);stroke-width:4;stroke-miterlimit:10;}
	.st8{fill:none;stroke:url(#SVGID_6_);stroke-width:4;stroke-miterlimit:10;}
	.st9{fill:none;stroke:url(#SVGID_7_);stroke-width:4;stroke-miterlimit:10;}
	.st10{fill:none;stroke:url(#SVGID_8_);stroke-width:4;stroke-miterlimit:10;}
	.st11{fill:none;stroke:url(#SVGID_9_);stroke-width:4;stroke-miterlimit:10;}
	.st12{fill:none;stroke:url(#SVGID_10_);stroke-width:4;stroke-miterlimit:10;}
	.st13{fill:none;stroke:url(#SVGID_11_);stroke-width:4;stroke-miterlimit:10;}
	.st14{fill:none;stroke:url(#SVGID_12_);stroke-width:4;stroke-miterlimit:10;}
	.st15{fill:none;stroke:url(#SVGID_13_);stroke-width:4;stroke-miterlimit:10;}
	.st16{fill:none;stroke:url(#SVGID_14_);stroke-width:4;stroke-miterlimit:10;}
	.st17{fill:none;stroke:url(#SVGID_15_);stroke-width:4;stroke-miterlimit:10;}
	.st18{fill:none;stroke:url(#SVGID_16_);stroke-width:4;stroke-miterlimit:10;}
	.st19{fill:none;stroke:url(#SVGID_17_);stroke-width:4;stroke-miterlimit:10;}
	.st20{fill:none;stroke:url(#SVGID_18_);stroke-width:4;stroke-miterlimit:10;}
	.st21{fill:none;stroke:url(#SVGID_19_);stroke-width:4;stroke-miterlimit:10;}
	.st22{fill:none;stroke:url(#SVGID_20_);stroke-width:4;stroke-miterlimit:10;}
	.st23{fill:none;stroke:url(#SVGID_21_);stroke-width:4;stroke-miterlimit:10;}
	.st24{fill:none;stroke:url(#SVGID_22_);stroke-width:4;stroke-miterlimit:10;}
	.st25{fill:none;stroke:url(#SVGID_23_);stroke-width:4;stroke-miterlimit:10;}
	.st26{fill:none;stroke:url(#SVGID_24_);stroke-width:4;stroke-miterlimit:10;}
	.st27{fill:none;stroke:url(#SVGID_25_);stroke-width:4;stroke-miterlimit:10;}
	.st28{fill:none;stroke:url(#SVGID_26_);stroke-width:4;stroke-miterlimit:10;}
	.st29{fill:none;stroke:url(#SVGID_27_);stroke-width:4;stroke-miterlimit:10;}
	.st30{fill:none;stroke:url(#SVGID_28_);stroke-width:4;stroke-miterlimit:10;}
	.st31{fill:none;stroke:url(#SVGID_29_);stroke-width:4;stroke-miterlimit:10;}
	.st32{fill:none;stroke:url(#SVGID_30_);stroke-width:4;stroke-miterlimit:10;}
	.st33{fill:none;stroke:url(#SVGID_31_);stroke-width:4;stroke-miterlimit:10;}
	.st34{fill:none;stroke:url(#SVGID_32_);stroke-width:4;stroke-miterlimit:10;}
	.st35{fill:none;stroke:url(#SVGID_33_);stroke-width:4;stroke-miterlimit:10;}
	.st36{fill:none;stroke:url(#SVGID_34_);stroke-width:4;stroke-miterlimit:10;}
	.st37{fill:none;stroke:url(#SVGID_35_);stroke-width:4;stroke-miterlimit:10;}
	.st38{fill:none;stroke:url(#SVGID_36_);stroke-width:4;stroke-miterlimit:10;}
	.st39{fill:none;stroke:url(#SVGID_37_);stroke-width:4;stroke-miterlimit:10;}
	.st40{fill:none;stroke:url(#SVGID_38_);stroke-width:4;stroke-miterlimit:10;}
	.st41{fill:none;stroke:url(#SVGID_39_);stroke-width:4;stroke-miterlimit:10;}
	.st42{fill:#3C4249;stroke:url(#SVGID_40_);stroke-width:4;stroke-miterlimit:10;}
	.st43{fill:none;stroke:url(#SVGID_41_);stroke-width:4;stroke-miterlimit:10;}
	.st44{fill:none;stroke:url(#SVGID_42_);stroke-width:4;stroke-miterlimit:10;}
	.st45{fill:none;stroke:url(#SVGID_43_);stroke-width:4;stroke-miterlimit:10;}
	.st46{fill:none;stroke:url(#SVGID_44_);stroke-width:4;stroke-miterlimit:10;}
	.st47{fill:none;stroke:url(#SVGID_45_);stroke-width:4;stroke-miterlimit:10;}
	.st48{fill:none;stroke:url(#SVGID_46_);stroke-width:4;stroke-miterlimit:10;}
	.st49{fill:none;stroke:url(#SVGID_47_);stroke-width:4;stroke-miterlimit:10;}
</style>
<g id="Layer_1_1_" class="st0">
	<g class="st1">
		<g>
			<path class="st2 PrrHTxEg_0" d="M570.1,751C570.1,751,570,751,570.1,751c-0.2,0.1-0.3,0.2-0.3,0.3L570.1,751z"></path>
			<path class="st2 PrrHTxEg_1" d="M594.9,776.4c0.1-0.1,0.3-0.1,0.4-0.1c0-0.1-0.1-0.1-0.1-0.2L594.9,776.4z"></path>
			<path class="st2 PrrHTxEg_2" d="M437.2,185.4c0,0.1,0,0.3,0,0.4c0.1,0,0.3,0,0.4,0.1L437.2,185.4z"></path>
			<path class="st2 PrrHTxEg_3" d="M744.2,840c-19-74.5-63.6-133.2-124.4-180c-45.3-34.9-95.5-62-144.2-91.6c-39.2-23.8-77.9-47.9-108-83.6
				c-25.1-29.8-38.7-63.2-39.1-102.6c-0.3-32.6,10.6-62,24.3-90.2c5.8-12,16.7-21.7,29.7-29.3c10.3-6.1,20.8-5.7,31.9-8.6
				c-0.5-12.8-16.7-19.5-10.6-34.7c2.6-3.6,6.4-8.9,9.1-12.7c9.5-5.5,19-1.8,27.1-5.3c1.6-6.2-3-10.5-2.9-15.7
				c-8.2-1.1-17.7,0.9-23.7-8.9c5.3-2.9,9.7-6.6,14.7-7.8c10.8-2.8,22-4.4,33.1-6.5c3.4-5.2,4.4-9.9-0.3-14.7
				c-30.3-4.5-60.8-4.3-90.6,0.9c-26.2,4.5-50.9,14.3-72.9,30.6c-32.7,24.2-52.8,57.4-69.6,93.1c-3.4,7.3-7.5,13.3-13.6,18.7
				c-26.7,5.2-45.8,20.9-57.7,45.4c-4.3,9-10.7,14-20.4,15.1c-14.2,1.6-25.3,9.7-31.3,21.3c-6.9,13.3-16.7,22.6-29.5,31.1
				c2.5,19.6-23.8,32.4-14,55.5c3.3-1.2,5.3-1.5,6.5-2.5c3.6-3.1,6.1-7.3,9-10.9c17.7-21.7,38.6-22.9,59.2-3.5
				c7.1,6.7,13.8,9.1,21,1.3c6.3-8.4,1.4-17.2,1.6-25.8c7.1-1.2,7.8,8.7,14.4,8.5c13.8,1.8,21.3-11.1,32.3-15.4
				c1.3,1.8,2.4,2.6,2.5,3.5c0.4,3.5,0.5,7.1,0.8,10.7c2.7,30.9,10.2,60.5,23.1,88.7c16.5,35.9,41.8,65,72.1,89.4
				c12.3,9.9,24.7,20.6,40.2,25.9c0.2,1.7,0,4.2,1,4.7c9.9,6,19.2,12.9,30,17.7c24,10.8,50.2,15.8,73.2,29.5
				c8.2,4.9,17.1,12.5,28.6,9.2c0.8,6.1,6.4,7.6,10.5,10.1c17.3,10.6,34.4,21.7,52.5,30.8c10.8,5.5,17.9,16.4,30.2,19.2
				c5.4-7.6,10.9-15.3,17-23.9c-3.6-6.5,5.5-16.8-7.2-22.6c-4.9,6.2-1.2,13.4-4.8,20.8c-2.1,2.5-5.5,6.5-10.2,12.1
				c-22.9-8.8-40.3-27.7-64.1-37.4c5.5-8.7,14.5-11.4,18.1-20.2c1-8.5-4.1-17.8,0.7-29c45.2,22.8,81.4,56.4,114.3,95.2
				c-2,8.3-5.1,16-4.2,24.8c-5.7,5.7-8.4,14.1-15.3,16.8c-10,0.1-8.8-14.8-19.1-11.4c3.8,11.9,11.5,20.9,21.3,28.3
				c3.8-5.9,10-9.6,14.5-14.8c4.2-4.8,5.5-11.8,8.3-14.5c4.2-8.5-1.8-13.6,0.1-22.5c21.4,20.4,33.9,44.8,49.5,66.7
				c-5.1,17.3-14.6,29.9-29.8,39.5c-4.6-3.9-9.5-10.1-17.5-10.9c-3,9.1,3.5,15.4,6.4,20.9c4.7,69.2-7.7,131.3-58.1,180.6
				c-54.3,53.1-120.3,63.7-192.6,51.9c-14-8.4-28.3-16.6-43.7-23.1c-14-5.9-28.9-10.5-39.8-22.4s-23.6-22.1-33.8-34.5
				c-27.1-32.9-46.7-69.1-42.4-113.7c1.1-11.1,1.4-23.1,12.2-30.9c1.4,1.6,1.9,2,2.1,2.4c1.8,3.5,0,7-0.4,10.4
				c-5,47.2,6.2,89.9,37.1,126.2c23.6,27.7,53.5,47.4,86.8,61.4c17.3,7.3,35.1,13.8,55,12.1c16-1.4,32.9,2.2,48.1-1.6
				c36.6-9.2,69.6-26.2,96.7-53.7c30.6-31.1,53.6-66.3,64.1-109.1c2-8,3.8-14.8-6.1-19.2c-8.5,15.3-19.3,27.7-33.7,36.7
				c-6.4,4.1-8.8,9.5-3.2,16.1c2.2,2.5,2.8,5.1,1.5,9.1c-6.9,7.3-16.1,12-26.5,15.6c-17.7,6.2-36.1,6.9-54.5,8.4
				c-7.6,0.6-15.6,0-20.7,9.1c13,6.2,30,2,40.1,15.2c-6.5,7-13.9,9.6-22.7,9.5c-12.5,0-25.1,0.5-37-4.4c-5.4-2.2-10.4-2.6-13.2,2.3
				c-3.2,9.1,8,12.9,4.5,23.2c-15.7,16.3-35-6.9-51,3.2c-18.3-19.4-24.1-44.3-40.7-62.1c-13.5,11.6,5.5,23-2.3,34.6
				c-6.9-2.4-12.5-5-15.2-13c-5-15-11.3-29.6-16.8-44.5c-2.2-6-5.4-7.2-9.7-4.1c-3.3,14.8,13.9,25.6,6.2,41.5
				c-8.5-2.1-12.1-8.5-16-12.5c-11.3-25.7-9.2-53.1-17.8-78.1c-11.3,2.3-9.6,11.4-10.3,19.5c-0.6,6.9,2.9,15.6-7.3,20
				c-8.6-9.2-5.3-20.9-8.7-30.7c-6.3-18.5,0.4-36.1,9.1-51.3c16.3-28.1,43.8-40.8,74.8-46.6c30.6-5.7,60.1-1.1,89.5,8.4
				c46.7,15,89.2,35.7,118.7,77.1c2.7,3.8,6.7,7.9,13.5,7.8c-0.2-21.4-14-36.1-23-51.7c4.1-6.5,12.3-2.2,16.2-8.5
				c-16.3-24.2-46.8-16.3-66.6-31.2c-1-3.7,2.3-8.2-1.9-11.8c-11.9-6.7-30.6,5-39.1-12.9c7.5-14.1,25.2-4.7,34-14.7
				c-1.5-4.2-4.3-4.9-7.4-5.1c-25.7-1.3-51.1,1.5-76.3,6c-6.7,1.2-13.8,5.9-19.5-4c8.1-19.1,32.1-23.7,42.9-42.7
				c-12-3.3-19.7,3.1-27.6,7.1c-25.6,12.8-47.9,30.7-71.6,46.5c-6.5,4.4-12.7,11.2-23.7,6c0.1-14.6,16.8-22.2,17.2-36.9
				c-11.3,3-14.8,5.2-20.4,15.1c-7.8,13.9-14.3,28.6-22.6,42.2c-5.8,9.5-8.4,21.7-19.5,27.3c-4.1-5.6,2.5-14.2-6.9-17.2
				c-6.7,13.1-11.9,26.1-13.2,40.1c-6.4,0.5-10.3-5.8-17.5-2.7c-59.8,56.3-59.4,122.8-29,194.3c2.8,0.7,5.5,1.5,8.2,2.2
				c-1.5,7.3,1.5,13.7,3.6,20.5c3.3,1.3,6.5,2.5,9.7,3.8c0.7,18.5,7.4,34.2,20.7,47.4c4.1,4.1,6.4,10,9.6,14.9
				c5.8,8.8,6.8,17.6,0,26.4c-5,6.4-5.9,12.6-0.4,18.5c8.7,2.9,20.6-7.1,24.9,8.1c-5.5,11.1-21.3,16.5-18.4,33.7
				c1.7,4.1,4.5,9.3,8.1,12.5c16.9,8.9,23.9-11.5,37.5-11.3c5.1,5,5.4,12.7,12.4,17.1c3.9,2.3,10.6,1.5,14.4,5.6
				c7.8,12.4-9.3,17-7.7,27.2c8.3,4.1,13.7,0.8,18.8-5.3c13.5-16,11.4-33.6,6.4-51.7c10.4,9.1,13.5,24.9,26.3,28.8
				c7.4,10.1-5,17.8,0,26.5c23.6-8.8,19.7-15.4,12.8-51.9c-6.6-7.3-12.4-16.2-17-25.2c-12.6,0.6-12.6,0.6-24.8,10.3
				c-2.7-4.5-5.3-9-7.1-12c-6.3-4.2-12.2-0.5-17.1-3.4c-12.2-7.2-11.6-21.6-17.4-32.3c-5.6-10.4-21.1-14.3-19.2-31.5
				c12.2,16.3,27.6,26.5,42.6,36.9c14.3,9.9,30.4,18.2,48.1,15.6c10.6-1.6,20.7-1.2,29.8,2.1c12.5,4.5,25.1,6.9,38.1,8.5
				c38.1,4.5,75.2,1.4,110.6-14.7c2.6-1.2,5.9-0.8,8.4,1.3c11.5,41.3,11.5,41.3,5.2,56.7c-15.6,2.8-19.5,19.1-29.8,28.4
				c-11.1,10.1-29.1,7.3-36.9,20.5c2.2,8,12.2,4.1,13.4,12.2c-15.5,13.1-34.3,10.4-52.6,11.4c-18.2,0.9-36.6-3.5-55.6,1.3
				c6.7,21.2,33.4,8.7,41.4,26.1c-1.5,1.7-2.4,4-3.7,4.3c-22.1,4.7-44.1,8.7-66.3-0.1c-11.2-4.4-22.1-11.1-34.9-8.8
				c-2.6,6.8,6.8,9.2,2.6,17.9c-4.8,6.7-14.5,7.3-23.9,5.7c-20.5-3.4-40.6-8.7-60-16.5c-15.4-6.3-30.9-12.6-48.2-11.3
				c-4.8,0.4-10,0.1-9.6,7c2.6,6.4,12,3.3,13.8,11c-1.9,9.2-9.5,6.7-15.6,6.2c-38.2-3.1-76.1-4.3-113.6,6
				c-7.7,2.1-15.9,2.1-22.5,9.1c7.8,6.4,20.9,2.8,26.4,15.7c-17.4,10.9-27.4,30.6-47.3,38.9c-18.6,7.8-28.2,24.6-39.7,39.4
				c-0.9,1.1-0.3,3.3-0.4,4.5c3.5,4.4,10,0.5,12.9,5.7c0.7,10.2-11.1,16.7-9.1,27.7c5.8-0.7,9.1-7.8,17.7-2
				c1.6,36.6,7.5,74.4,28.4,108c8.9-3.7,3.5-13.9,11.2-17.1c15.6,8.7,27.8,24.3,45.8,27.1c7.1-6.7-4.7-10.4,1.1-16.2
				c15.4-2.8,27.2,12,43.9,8.8c15.4-2.9,28.7-9.4,43.2-14.5c-11.1-5.9-22.4-3.7-33.3-3.7c-28,0-54.1-7.6-78-21.1
				c-19.9-11.2-30.3-28.5-35.9-52.2c-5.9-24.7-0.7-45.2,11.1-64.2c11.9-19.2,29.4-34.5,50.7-43.8c33-14.3,66.8-24.2,103.6-23.3
				c24,0.6,47.4,4.7,71.1,6.8c42.7,3.8,85.4,7.7,128.1-1.1c40.2-8.3,75-25.5,103.8-55c11.4-11.7,20-25.2,27.8-39.1
				c7.7-13.7,13-28.8,19.7-44.3c0.6,11.9,2.8,22.7-1.9,32.9c-13.8,29.8-31.5,56-58.6,76.4c-31.9,24.1-66.9,37.9-106,42.5
				c-37.6,4.4-74.9-0.6-112.1-5.2c-38.4-4.7-76.7-10.2-115.6-3.1c-10.6,2-20.5,5.8-31,8.2c-30.7,6.9-56.4,22.8-74,49
				c-17.9,26.6-20,56.8,0.4,81.3c28.1,33.9,67.1,47.4,109.1,46.5c20.9-0.5,43.8-2.6,63.7-12.9c7.4-3.8,18.9-4.5,17.6-17.7
				c-7.7-2.1-13.9-0.4-19.7,3c-11,6.3-23.6,9.2-35.5,10.7c-35.8,4.6-69.9-1.6-100.1-22.9c-20.6-14.5-26.1-47.3-11-65
				c9-10.5,18.5-19.8,31.2-25.9c17.4-8.4,53.6-17.8,66.5-16.2c-1.8,2.1-4.2,1.3-6.4,1.6c-2.1,0.3-4.8-0.4-5.2,3.2
				c47.8,1.3,93.6,12.9,139.4,25.3c9.1,2.5,18.9,4.9,28,4.1c12.2-1.1,23.6,1,35,2.4c37.2,1.4,72.2-9.8,110.5-19.6
				c7.8-4,17.4-10.8,28.7-15.6c16.3-7,31.9-17.1,44.3-30.1c15.8-16.5,31.5-32.9,45-51.8c30.3-42.5,40.8-90.7,43.5-140.9
				c1.4-24.8-3.5-49.8-7.4-74.5c-0.5-3-0.5-5.9,3.3-6.6c10.5,13.3,8.6,29.5,10.6,44.7c2.9,21.2,5,42.8,2.4,64
				c-3.4,28.4-13.1,55.3-27.7,80.2c-3.3,5.7-7,11.3-3.4,18.3c6.3,0.4,11.1-3.9,13.2-7.9c8.8-16.7,21.2-31.7,26.7-50
				c8.8-29.4,14-59.7,19.6-89.1c-1.8-8.8-10-16.4-1.6-25.6c11.5,3.8,15.4,14.5,22.1,22.8c0.7-33.5-24.4-54.4-38.9-80.9
				c4.2-4.7,8.4-9.7,12.8-14.4c19.6-20.8,26.1-48.7,39.3-73c10.8-19.9,11.9-42.9,17.2-64.6C760.6,922.8,754.5,880.6,744.2,840z
				 M198.1,324.9c3.6-8.7,12-6,18.9-6.8C212.5,324.9,205.4,325,198.1,324.9z M402.7,203.5c-11.3,15.1-12.3,28.1-1.1,42.3
				c-14.2,2.2-25.8,8.3-37.9,15.2c-5.7-3.1-10.7-8.3-16.9-8.7c-6-8.3-4.6-16.9-6.1-27.1C355.5,207.2,377,205.5,402.7,203.5z
				 M332.1,226.5c0,9.6-0.6,18.3,2.4,27.4c3.9,6.9,11.4,10.1,20.6,13.3c-11.7,13-21.9,24.3-32.2,35.6c-8.7-4-17-2.7-26.4-2.8
				c-4.1-6.9-14.6-8.4-17.9-20.2C286,253.2,311.3,242.4,332.1,226.5z M270.9,285.1c4.3,11.3,12.8,18.5,21.7,26.4h26.2
				c-10,17.1-12.8,34.5-23.8,49.4c-10.7,0.1-21.8,1.9-34.8-0.7c-4.3-5.2-9.5-11.5-15.9-19.4C248.5,321.7,258.6,303.1,270.9,285.1z
				 M238.1,352.9c14.6,22.9,33.2,23.9,54.4,18c1.6,16-7,30.6,1.3,44c-9.9,15-22.7,23.9-36.8,31.2c-8.2-3.3-13.5-11.5-23.2-8.6
				C224.3,409,236.6,383.6,238.1,352.9z M233.1,446.4c7.1,4.7,10.9,7.3,15.7,10.5h15.7c8.8-6.1,18.2-12.7,28.2-19.6
				c3.9,23.7,12.9,44.4,18.2,66c-7.8,9.5-15,18.7-26.2,25.1c-5.6,0.9-12.2-0.5-17.7,2.3C244.4,507.8,240.5,478.9,233.1,446.4z
				 M344.7,629.5c1.2-3.7,0.4-6.7-3.9-7.7c-5.4-1.3-7.3-5.4-10.1-11.5c25,3.8,33-13.1,41.1-30.7c-5.9-4.5-12.4-0.6-13.9,2.6
				c-7.5,16.2-22.5,17.4-37.2,20.3c-2.2,0.2-4-1.3-5.5-3.2c-15.1-19.7-35.9-34.9-46-58.5c11.9-1.6,24.9,1.6,34.4-9.7
				c5-5.9,12.5-9.9,10.1-20.8c18.5,20.4,32.6,42.8,49.5,58.8c24.7,14,47.1,26.7,69.4,39.3c-0.6,9.4-1.1,17-1.7,24.5
				c-10.2,13.8-24,19-40.6,19C375.7,643.9,363.7,629.4,344.7,629.5z M508,676.2c-2.6,5.9-11.3,6.2-12.1,14.1h-18.7
				c-0.7-4.4-3.6-6.6-7.9-7.9c-15.8-4.7-29.4-15.1-46-18.2c-1.9-0.4-3.5-3-6.8-6.1c10.1-3.7,18.9-8.2,24-16.7
				c5.4-8.9,1.7-18-0.5-28.4c22.1,12.9,47.3,18.2,67.8,33.7L508,676.2L508,676.2z M200,954.5c3.1,10.9,6.5,21.7,1.2,33.1
				C193.2,977,199.5,965.6,200,954.5z M216.7,1063.2c-8.6-13.1-9.2-29.3-16.7-43.1c-3.3-6-4.6-16.5,6.5-22.3
				c9.7,12.8,11.9,29,20.7,42C222.7,1047.9,218.6,1055.1,216.7,1063.2z M230.2,1087.2c0.8-11.7-3.5-23.5,0.1-35.2
				c4.8,2.6,7.3,6.9,9.7,12.2C235.1,1071.2,235.6,1080.4,230.2,1087.2z M378.4,1115.9c8.9,3.8,17.8,7.8,26.8,11.5
				c5.6,2.3,10.8,4.9,11.9,11.7C405.8,1140.8,386.3,1129,378.4,1115.9z M443.7,1195.4c-11.6,0-21.1-6.3-33.7-9.2
				c11.4-6.8,21-13.1,28.5-22.5c3.5,6.5-0.1,11.7,0.8,17c1,5.2,2.8,8.7,8.5,7.4C446.5,1190.5,445.2,1192.8,443.7,1195.4z
				 M553.8,1185.4c-12-0.4-22.5-4.1-32.4-9.5c-3.9-3.8-2.8-9.1-4.3-13.6c-4.1-3.3-8.6-5.3-16.2-5c8.1,13.8,9.7,29.9,30.1,32.6
				c-24.9,8-53.7,6.8-82.3-2.3c3-8.7,0.6-17.2-2.1-27.5c41.4-4.6,82.1-9.2,119.6-30.4c6.3,17.7,20.9,24.1,36.6,28.6
				c4.7,1.3,8.9,2.1,10.1,7.4c-4.4-0.8-8.7-3.7-13.2-0.9C585.2,1173.9,568.3,1177.5,553.8,1185.4z M270.7,1444.5
				c-16.4,7.3-31.6-1.9-46.9,1c12.6-8.1,74.4-5.3,107.5,3.6c4.7,5.2,1,15.1,10.3,19.5C316.6,1463.1,292.4,1459.1,270.7,1444.5z
				 M399.6,1470.9c-11.9,0.6-23.6-0.4-36.7-0.6c-2.6-8.1-17.6-5.6-16.8-19.4h49.2c7.8,1.6,5.1,7.5,7.8,10.4c2.6,2.8,6.1,2.1,9.4,2.6
				C409.3,1468.3,405.7,1470.6,399.6,1470.9z M413.1,1463.8c0.5-3.9-1.6-8.1,2.4-13.3c15.9,0.4,32.4-3.6,46.1-8.5
				c10,1.9,13,8,19.9,15.2C457.1,1460.8,436.7,1474.5,413.1,1463.8z M502.3,1447.1c-9.9,3.3-18.3,1.4-25-9.9
				c19.2-8.4,35.2-18.4,49.2-31.5c9.7,3.3,13.7,14.5,25.3,13.2C534.9,1429.6,520.2,1441.2,502.3,1447.1z M565.4,1406.2
				c-12.4,8.5-20-2.6-30.1-6.7c11.2-14.5,21.6-28,32.5-42.2c9.9,12.5,22,8.5,33.9,6C595.3,1382.5,581.3,1395.2,565.4,1406.2z
				 M602.1,1362.2c-0.2-2-0.3-3.9-0.5-5.5c-9.5-6.4-21,2.6-30.8-6.9c4.2-17.3,13.5-33.8,14.9-51.6c15.3-2.9,29,2.5,42.7-7.9
				C625.8,1318.1,616.4,1341,602.1,1362.2z M628.7,1278.5c-13,9-26.2,9-40.5,6.3c-6.7-21.3,2-42.1-3.1-62.2
				c11.3-4.8,25-0.2,31.5-13.6c0.7-2.8,0.4-6.2-3.1-9c-8-1.1-11.5,7.2-18,9.5c-5.1,0.7-9.3-1.4-13.7-4.7c-2.6-3.6-2.5-8.3-2.6-12.8
				c2.3-4.6,5-7.7,10-9.7c9-3.7,20.3-4.4,24.1-15.9c11.5,9.1,6.1,21.5,6.6,33.2C632.2,1224.3,627.7,1251.1,628.7,1278.5z
				 M665.4,1118.8c-17.2,13.1-27.6,34.5-50.9,31.5c-15.1-1.9-30.2-7.2-39-23.5c17.1-13.7,35.9-24.8,52.6-44.8
				c2,20.1,15.9,23.6,24.6,29.7c8.7,3.1,18.9-4.3,22.8,7.2C671.4,1124.5,667.2,1116.2,665.4,1118.8z M727.6,993.4
				c-2,7.7-7.2,8.5-9.6,13.7c6.9,18.8,0.1,37-8.6,54.6c-8.4,17-18.9,32.4-37.5,42.5c-4.8-6.5-11.9-1.4-17.1-2.3
				c-10.9-6.3-14.4-16.6-20.7-26.8c12.6-17.4,20.5-36.3,27.2-54.9c8.2-0.5,8.9,7.9,12,8.1c12.2,1.7,21.6,2.4,31.3,0.1
				c4.6-3.3,9.4-6.6,12.4-11.3c-1.1-6.5-6-7.7-9.3-5.2c-14.6,10.7-28.1,8.1-43-2.3c0.8-21,5.2-42.5,3.2-66.3
				c17.7,3.3,34,6.9,45.8-8.3c1.9-2.5,1.8-2.6-2-13.9c-10.7,7.2-20.7,16.7-35.2,13c-6.9-2.6-12.3-7.5-11.8-15.5
				c1-17.1-7.1-31.8-11.8-48.8c21.7-2.6,34.3-16.2,43.5-38.9c7.4,31.1,24.9,55.2,21.4,86.5C734.5,940.9,725.3,969.4,727.6,993.4z"></path>
			<path class="st2 PrrHTxEg_4" d="M304.5,911.1c0.1,0.2,0.1,0.4,0.2,0.6c0.1,0,0.1,0,0.2,0L304.5,911.1z"></path>
			<path class="st2 PrrHTxEg_5" d="M641.3,848c0.1,0,0.2,0,0.4,0.1c0-0.1,0.1-0.2,0.1-0.4L641.3,848z"></path>
			<path class="st2 PrrHTxEg_6" d="M616.6,804.6L616.6,804.6c-0.2,0.1-0.3,0.3-0.4,0.4L616.6,804.6z"></path>
		</g>
		<g>
			<path class="st2 PrrHTxEg_7" d="M732.3,336.2c-15.7,3.6-8.3,22.5-19.2,29.2c-10.5,6.5-17.9,16.6-25.9,26c-9.3-8.2-0.4-18.3-4.7-25.3
				c-2.7-6.4-9-9.2-10.5-15.9c0.1-7.4,7.5-13.5,4.4-23.9c-3.5-5.7-8.2-13.2-13-20.9c7-14.1,9.3-29.3,7.7-43.8
				c-2.1-19.4,4.2-35.7,11-53c9.3-23.6,17.8-47.5,21-73.3c2.5-20-0.5-39.3-1.8-58.7c-0.8-11.3-6.3-22.8-14.4-32.6
				c-7.1,24,2.9,47.6-1.6,71.9c-4.5,24.1-8.8,48.2-18.7,70.3c-9.7,21.7-17.2,45.5-37.3,62.2c-4.6-8.5-6.9-18.5-18.1-16.5
				c-4.7,2.2-2.5,8.6-8.9,10.1c3.3-14.7-1.1-29.2,0.3-45.5c16,9.6,16.6,30.5,33.7,35.2c4.7-6.9,5.3-13.9,5.3-21.2
				c0.3-40.3,3.1-80.7-8.1-120.3c-2.6-9.1-7.6-14.8-15.2-21.9c1.9,34.3,15.7,65.1,9.8,98.1c-7.4-1.4-8.6-5.7-9.5-9.7
				c-2.7-11.6-4.4-23.4-7.7-34.8c-4-13.5-6.6-28.4-25.4-36.7c2.6,17.9,8.9,32.8,5.7,53.3c-6.7-12.2-12.4-7.7-18.7-1.1
				C542.6,104.1,531,57.3,488,36.9c10.9,22,32.6,37.7,38.2,62.5c-7.1,5.4-11.5,2.2-15.9-1.1c-8-6.2-16.1-12.3-23.9-18.6
				c-23.1-18.7-46.8-36.4-72.7-51c-7.8-4.4-14.9-5.3-26.8,1c16.9,9.6,32.1,16.6,41.9,29.8c9.6,13.1,18.1,27.1,27.6,41.6
				c-13.7,5.2-23.5,1-32.8-4.4c-21-12.2-41.5-25.3-62.8-37c-10.4-5.7-22.1-8.7-35.6-8.5c1.8,9.2,6.3,13.8,13,15.3
				c13.5,3.1,20.6,12.9,27.8,23c-1.5,7.2-4.8,11.9-11.6,12.6c-12.5,1.4-25.1,2.1-37-3C282.9,84.6,247.7,72.5,211,64.9
				c-7.7-1.6-16.2-4.2-23.5,6.9c35.6,11.9,72.6,17.7,101.3,43.2c-5.7,5.3-12.6,0.9-16.5,6.8c-1.9,3.9,4.1,8.7-1.4,14.2
				c-4.9,1.8-11.5,2.1-17.9,0.7c-27.1-6-53.3,1.7-79.8,4.8c-4.7,0.5-11.5,1.5-8.5,11.2c24.3,0,49.9-2.9,71.4,13.2
				c-2.9,12.3-11.5,16-19.6,19c-32.8,12.4-55.4,38.1-80.3,60.9c-2.9,2.7-4.1,5.7-1.8,10.9c10.8,2.2,14.7-11.4,22.7-12.1
				c9.9-0.9,17.2-11.6,28.2-7.1c-4.5,15.4-11.4,28.3-22.6,39.6c-7.7,7.7-12.3,18.7-17.9,28.5c-2,3.6-1.8,7.6,3.2,12.5
				c13.9-20.8,32.2-32.7,54.4-32c9.2-5.6,12.1-13,15.8-19.7c18.1-33.2,41.6-62.5,69.3-87.8c35.4-32.3,80.9-37.6,125.9-42.1
				c21.6-2.1,43.6-1.4,63.9,3.3c6.6-6.7,2.6-12.8,3.1-18.4c2.2-0.9,4.4-0.7,7.8,1c-3.8,8.4,2,14.6,6.1,21.4
				c5.3,8.8,14.8,15.5,14.5,27.3c-4.3,0.4-7.8-1.1-10.2-4.8c-4.8-7.3-9.5-3.7-13.1-1.9c-4.9,10.3,8.1,12.2,5.3,22.3
				c-15.6-8.1-32-13.1-49.8-12.8c-1.3,4.3-2.4,8-3.5,11.7c16.4,3.7,37.4,17.7,45.1,30.6c-12.4,2.2-23.5,7.9-35.9,10.1
				c-8.6,1.6-20.3,4.4-19.1,19.1c10.4,2.9,22.5-2.9,30.6,7.1c-4,13.3-4,13.3-0.7,25c-15.7,21.7-17.9,53.4-4.9,66.2
				c8.2-0.8,1.4-14.9,12.2-13.9c0.2,28.6,3.4,35.9,23.3,47.1c-6.3-15.6,13.2-15.1,13-26.5c-1.8-3.1-4.2-3.5-6.5-4.2
				c-3-0.9-5.3-2.5-6.3-5.7c5-16,10.4-17.7,31.3-9.8c12.4,14.3,13.5,29.4,5.4,46.5c-3.4,7.3-8.5,12.7-13.2,18.7
				c-8.5,11.1-8.6,17.7,1.4,26.2c5.5,4.7,9.8,10.3,15.1,15.1c9.6,8.6,18,19.4,32,21.5c6.9,1.1,13.4,1.3,13.3-7.6
				c-2.8-7.1-12.7-3.1-13.6-10.7c0.2-7,11.4-5.8,9.1-15.4c-4.7-6.4-17.3-5.9-20.1-18.1c4-8,8.5-16.9,12.9-25.8
				c1.6-5.4-3.9-10.2-1.5-15.7c3-9.5,13.6-13.1,18.2-23.3c-8.7-12.7-12.4-27.2-6.6-43c3.6-3.7,7.4-7.6,13.6-6.4
				c6.5,3.6,8.9,9.2,7.9,16.2c-13.1,22.3-12.6,24.2,8.1,38.7c10,7,17.4,17.3,29,22.5c3.6,1.6,5.4,6.2,5.1,11.3
				c-4.8,4.5-11.5,8.6-7.4,18.4c3.4,5.4,11.9,8.4,13.1,16.5c-0.1,6.7-9.5,6.2-8.8,13.8c2.3,8.9,12.4,3.5,17.7,8.1
				c0.3,5.5,5.7,8.5,7.1,13.6c-2.2,2.3-4.2,4.4-6.2,6.6c-2.4,2.6-5.8,4.3-6.1,8.5c11,5,25.1-0.2,32.9-13.5
				c9.7-16.6,22-30.7,37.4-42.2c1.3-1,2-2.9,3.3-4.9c-0.5-4.3-1.1-9-1.6-13.6C730.1,375.3,738.8,352.1,732.3,336.2z M519.7,149.5
				c-6.4,0-8.4-4.8-10.4-9.6C514.1,141.7,517.5,145,519.7,149.5z M541.3,179c-4.7,4.9-2.6,9.8,0.1,14.6c10,17.7,13.1,36.5,9.8,57.9
				c-21.4,2.1-19.3,22.9-27.5,37.2c-2.6-9.9,0.2-21.9,7.6-32.5c6.9-9.9,12.2-20.3,14.8-32.9c-8-22-11.7-46.3-25.4-66.9
				c-1.1-1.6-0.5-4.2-0.6-6.5c22.3,4.2,39.5,19.9,61.2,27c-3.7,5.4-7.2,10.7-12.2,14.7C551.6,179.4,551.6,179.4,541.3,179z
				 M603.6,176.3l-1.6-15.6C606.3,165.6,605.2,170.9,603.6,176.3z"></path>
			<path class="st2 PrrHTxEg_8" d="M437.6,185.8c0-0.1,0.1-0.2,0.1-0.3c-0.2,0-0.4-0.1-0.5-0.1L437.6,185.8z"></path>
		</g>
		<path class="st2 PrrHTxEg_9" d="M304.9,911.7c1.5-13.8,1.9-27.4-7.3-39c8.9-22,27.5-29.9,47.5-34.4c31.7-7.2,63-5.6,95,2.7
			c53.9,14.1,94.1,46.1,126.8,89.3c6.3,8.3,13.8,16.7,11.5,30.2c-9.2,13.1-22.4,21.3-39.7,21.2c-20.1-0.1-40.2,0.1-60.1,2.5
			c-33-37.1-72.4-58.7-122.9-57.6c-9.6,7.9-22.2,9.1-34.1,13.3c-3.6-10.8-11.1-19.3-17-28.8L304.9,911.7z M517.4,973
			c-21.5-24.3-43.6-40-70-51.3c-12.6-5.4-25.8-3.2-37.6-8.3c-12.6-5.4-25.6-4.9-38.7-4.5c-6.9,0.2-13.7,1.5-16.9,11.5
			c19.9-4.7,38.7,1.2,56.6,2.2c6.1,2.3,6.1,8.6,11.9,11.5c13.4-4.1,20.7,10.2,32.4,13.5c14.4-7.8,14.4-7.8,22.8,1.1
			c-2.4,6.5-12.4,0-14.1,9c4.8,5.2,9.9,10.6,14.3,15.4C490.4,973,501.7,973,517.4,973z M328.3,926.1c8.3-3.2,8.3-3.2,11.2-9.9
			C333,916.1,331.4,920.7,328.3,926.1z"></path>
		<path class="st2 PrrHTxEg_10" d="M466.2,541.8c21.9-5.6,118.3,14.6,130.7,27.7c-10.1,3.7-21.7-3.8-30.9,4.7c1.4,10.5,10.4,13.3,17.7,15.3
			c16.4,4.5,30.3,12.3,44,22.2c19.2,13.9,42.2,21.3,62,34.5c16.5,11,30.6,24.7,44.7,38.3c4,3.9,9,8.2,7,16.7
			c-13.9-2.7-23.4-15-37-17.8c-4.1,7.1,0.9,10.3,4.8,13.7c16.2,14,30.5,29.7,43.8,46.4c3.6,4.6,8.2,8.7,9.4,14.9
			c1.6,6.6-4.1,11-4.9,16.7c6.5,24.6,21.5,45.1,31.4,67.9c3.1,7.1,4.8,13.4,1.3,20.3c-5.4,11-3.3,22.5-1.1,33.3
			c4.7,23.4,5.7,47.1,6.5,70.8c0,1.2-0.4,2.3-0.7,3.6c-2.2,4.8-7.9,4.7-12.1,8.2c-6.9,12.9-2.4,30.9-16.1,42
			c-4.7,3.5-11.5-0.8-16,4.3c-4.7-5.8-1-11.1,1.1-15.3c20.9-42.2,17.9-87.6,13.5-131.5c-3.5-35.1-18.3-68.8-34.6-100.8
			c-26-50.9-58.4-97-103.8-132.6c-32.3-25.3-66.2-48-103-66.4c-16.4-8.2-32.1-17.9-47.8-27.4C472.3,549.1,467.4,547.2,466.2,541.8z"></path>
		<path class="st2 PrrHTxEg_11" d="M641.8,847.7c-11.1-12.8-22.7-25.3-25.2-43.1l-0.4,0.4c11.7,6.7,23.8,27.4,25.1,43L641.8,847.7z"></path>
		<path class="st2 PrrHTxEg_12" d="M595.2,776.1c-13.2-3.5-20.3-13.2-25.1-25.1l-0.3,0.3c13.6,3.1,23,10.4,25.1,25.1L595.2,776.1z"></path>
	</g>
</g>
<linearGradient id="SVGID_1_" gradientUnits="userSpaceOnUse" x1="-146.5773" y1="577.2189" x2="708.5989" y2="975.994" gradientTransform="matrix(1 0 0 -1 0 1650)">
	<stop offset="0" style="stop-color:#C9864F"></stop>
	<stop offset="1" style="stop-color:#F5C89E"></stop>
</linearGradient>
<path class="st3 PrrHTxEg_13" d="M460.9,148.8c0,0-100.5-16.1-152.1,23.8S249,228,226,276.9c-6.2,9.3-9.8,14.7-11.8,15.2
	c-6.1,1.4-29,8.4-40.6,20.9c-11.5,12.5-17.6,29-24.8,34.6s-25.8,6.2-32.6,12.7c-6.8,6.5-12.8,14.7-17.6,23.5
	c-4.8,8.8-21.4,19.9-23.3,21.2c1.4,5.5-3.9,19-8.6,24.5s-10.5,19.9-5.4,31c5-1.7,4.8-0.8,6.5-2.5s17.7-25.5,31.7-27.1
	s22.1,0.6,31.4,8.3c9.2,7.8,15.5,12,21,9.7c5.4-2.4,9.4-8.5,8.1-18.3c-1.3-9.8-1.3-11.5-1.3-11.5s1.5-1.8,4.3,0.8
	c2.7,2.6,6.2,8.9,14.5,7.8c8.3-1.2,23.7-14.8,28-15.5c1.2,1.5,2.4,2.4,2.5,3.5s5.6,95.4,52.3,145.4s37,59,253.9,156.9
	C689,831.7,647.3,949.7,633.7,985.2c-14.4,37.3-68.1,108-145.2,117.7c-77.1,9.7-80.2,1.4-90.9-0.9s-23.4-16.8-36.9-20.1
	c-13.5-3.3-29.1-12.6-39.4-18.9s-61.5-59.7-73.5-92.4s-14.3-80.9,2.3-93.2c2.3-9.3,2.4-7.7,2.4-7.7s-6.7-4.3-11.6-3.4
	c-4.9,1-38.1,37-44.3,60.7s-11.9,42.8-6.8,68.9c5.1,26.1,20,86,48.4,122.7c28.4,36.7,28.8,41.7,26.6,49c-2.2,7.3-7.6,12.4-8.3,16.7
	c-0.6,4.3,1.3,9.2,3.5,10.7c2.8,1.1,5.9,0.5,6.8,0.4s9.1-2.4,12.1-0.3c3,2,4.7,2.6,6,8.1c-2.2,6.1-10.3,11-11.7,13.9
	c-1.5,2.9-9.5,10.6-6.7,19.8c2.5,6.9,8.1,12.5,8.1,12.5s6.7,3.4,10.9,2s13.2-7,15.4-9.1c2.2-2.1,10.3-5.1,11.1-4.2s2.6,3.1,3.4,4.7
	c0.8,1.5,3.5,8.4,6.7,10.7c3.2,2.2,5.3,3.1,10.8,4.2s8.3,5.9,8,9.4s-3.9,8.2-7.6,13.3s-2.1,7.6-2.1,7.6s5.7,3.2,9.5,1.5
	s14.4-8.1,17.7-22.1c3.2-14,2.3-19.2-2-36.4c5.4,4.9,10.2,12.4,11.8,15.7c1.7,3.4,7.9,12,14.5,13.1c3.2,4.1,2.7,8,1.9,10.5
	c-0.8,2.5-5.5,11.5-1.9,16c4.2-0.7,14.1-6.1,15.8-9.9c1.7-3.8,3.4-7.9,1.5-18.1c-1.8-10.2-4.4-22.9-4.5-23.9
	c-1.9-2.2-7.7-9.4-10.2-13.3c-2.5-4-6.8-11.9-6.8-11.9c-2.3-0.5-10.7,0.9-13.2,2s-10.7,7.7-11.6,8.3c-1.3-2.2-6.4-11.2-7.1-12
	c-1.2-0.7-2.7-1.7-5.8-2.1c-3.1-0.4-8.3,0.6-10.9-1.1c-2.7-1.7-8.4-4.5-13-19.6c-4.6-15.2-8.8-19-14.3-23.3s-11-10.9-9.7-21
	c7.4,6.1,7.5,12.5,31.7,29.3s40.6,24.9,55.5,23.6s20.9-2.1,28.1,0.2s34.4,10.5,55.1,11.2s68.1-0.2,92.2-13c10.6-5.1,12.8-3,15.1-1.6
	c0.8,2.9,7.9,28.5,8.6,33c0.7,4.6,1,10.1,0.4,12.6s-2.5,29.7-2.1,47.3c0.4,17.6-35.2,70-50.5,79.5c-15.3,9.4-48.2,47.2-122.7,52.1
	s-156.6-14.9-187.3-12.2s-86.4,8.9-120.1,38.3c-33.8,29.4-49.1,73.5-13.4,109.9s98.8,53.3,155.1,32.3c37.2-14.6,30-17.6,29.6-22.9
	c-8.4-0.8-8.8-1.3-12-0.2c-3.2,1-7,3.2-11.2,5.1s-94.9,33.9-144-26.9c-49.2-60.8,65.7-96.4,98.6-94.3c-2.9,3.1-6.9,0.4-9.7,2
	c-2.9,1.6-1.9,2.8-1.9,2.8c5.5,0.2,74.5,5.3,103.7,16c29.2,10.7,112.1,24.4,170.7,6.3s103.3-33.7,151.3-100.4s54.6-139.8,41.4-222.5
	c26.3-30.1,55.6-53.5,78.4-117.5s35.6-165.7-25-274.2C647.5,647.7,456.9,564,427.4,540S315.1,455.2,329,370.3s39.6-97.1,42.7-99.4
	s26.4-16.6,42.7-15.8c-2.2-7.8-2.4-9.6-5.4-13s-8.3-10.8-5.2-21.7c5.2-9.8,9.4-13.2,13.8-14.7s20.9-1,22.4-3.3
	c0.9-2.6-2.9-14.2-8-16.6c-8.2-1.8-12.8,0.6-18.6-8c5.1-5.3,14.1-7.7,16.8-8.3c2.7-0.6,28.8-5.2,31-6c2-1.6,3.4-7,2.8-9.1
	C463.4,152.3,460.9,148.8,460.9,148.8z"></path>
<linearGradient id="SVGID_2_" gradientUnits="userSpaceOnUse" x1="327.326" y1="684.0576" x2="541.4874" y2="783.9227" gradientTransform="matrix(1 0 0 -1 0 1650)">
	<stop offset="0" style="stop-color:#C9864F"></stop>
	<stop offset="1" style="stop-color:#F5C89E"></stop>
</linearGradient>
<path class="st4 PrrHTxEg_14" d="M321.6,940.9c0,0-7-17.5-17-28.8c1.1-14.4,1.2-29.2-7-38.4c5.1-11.8,18.2-23.6,24-26.3s54.8-21.7,102.2-9
	s89.6,29.1,125.5,71.6c26,26,32.1,42.7,29.1,51.5c-7.1,8.4-13.9,18-26.8,19.6c-12.9,1.6-47.1,1.8-56.7,2.6s-16.3,1.5-16.3,1.5
	c-4.8-6.8-33.5-33.1-54.8-43.1c-21.3-9.9-57.2-17.6-68.1-14.5C346.9,934.6,323,939.9,321.6,940.9z"></path>
<g id="Layer_3">
	<g>
		
			<linearGradient id="SVGID_3_" gradientUnits="userSpaceOnUse" x1="341.3713" y1="1401.7097" x2="412.7887" y2="1435.0122" gradientTransform="matrix(1 0 0 -1 0 1650)">
			<stop offset="0" style="stop-color:#C9864F"></stop>
			<stop offset="1" style="stop-color:#F5C89E"></stop>
		</linearGradient>
		<path class="st5 PrrHTxEg_15" d="M401.3,246.8c0,0-18.6-20.8,1.1-42.3c-30.9,0.1-46.1,8.8-49,10.6c-2.8,1.8-11.1,7.2-12.9,11.1
			c-0.2,6,1.7,23.6,6.1,27.1c0,0,8.3,1.5,16.4,8.4C369.8,258.3,383.8,248.2,401.3,246.8z"></path>
		
			<linearGradient id="SVGID_4_" gradientUnits="userSpaceOnUse" x1="279.4319" y1="1361.6453" x2="352.7672" y2="1395.842" gradientTransform="matrix(1 0 0 -1 0 1650)">
			<stop offset="0" style="stop-color:#C9864F"></stop>
			<stop offset="1" style="stop-color:#F5C89E"></stop>
		</linearGradient>
		<path class="st6 PrrHTxEg_16" d="M354.8,268.1c0,0-16-4.5-21.4-13.9c-1.9-6.7-2.8-17.8-1.6-26.2c-21.2,10.9-41.1,29.5-45,35.5
			s-8.2,13.9-8.4,17.2c2.3,7.1,4.6,9.1,8.9,12.1c5.3,3.8,9,8,9,8s15.8-2.7,26.4,2.8C325.2,300,349.6,272.8,354.8,268.1z"></path>
		
			<linearGradient id="SVGID_5_" gradientUnits="userSpaceOnUse" x1="242.1453" y1="1307.2502" x2="320.6619" y2="1343.8632" gradientTransform="matrix(1 0 0 -1 0 1650)">
			<stop offset="0" style="stop-color:#C9864F"></stop>
			<stop offset="1" style="stop-color:#F5C89E"></stop>
		</linearGradient>
		<path class="st7 PrrHTxEg_17" d="M318.5,312.5c0,0-21.8,0.5-26.2,0c-5.2-4.7-12.5-11.2-15.1-15c-2.7-3.7-6.5-11.5-6.5-11.5
			c-5.7,5.3-19.9,34.5-22,40.3c-2,5.8-4.7,13.4-4.6,15.4c5,3.6,12.2,16,15.4,18.7c3.2,2.7,15,2.2,18.4,2.1s14.9-1.6,16.9-0.7
			c2.3-3.4,8.9-13.4,9.6-17.5C305.1,340.3,316.1,315.6,318.5,312.5z"></path>
		
			<linearGradient id="SVGID_6_" gradientUnits="userSpaceOnUse" x1="218.4652" y1="1238.8865" x2="295.8966" y2="1274.9933" gradientTransform="matrix(1 0 0 -1 0 1650)">
			<stop offset="0" style="stop-color:#C9864F"></stop>
			<stop offset="1" style="stop-color:#F5C89E"></stop>
		</linearGradient>
		<path class="st8 PrrHTxEg_18" d="M292.2,372c0,0-19.7,4.6-28,2.1c-13-3.8-21-11.1-26.5-20.8c-1.2,14.7-2.9,28.6-4.9,36.2s-5.4,37.1,0.7,49.1
			c12-2.6,14.3,6.3,23.2,8.6c4.5-2.4,14.3-7.9,19.4-12.2c5-4.3,17.2-17.6,17.4-19c-2.8-6.5-4.6-9.5-3-22.3
			C292.2,380.8,293.1,374.2,292.2,372z"></path>
		
			<linearGradient id="SVGID_7_" gradientUnits="userSpaceOnUse" x1="241.1168" y1="1156.3334" x2="306.3721" y2="1186.7623" gradientTransform="matrix(1 0 0 -1 0 1650)">
			<stop offset="0" style="stop-color:#C9864F"></stop>
			<stop offset="1" style="stop-color:#F5C89E"></stop>
		</linearGradient>
		<path class="st9 PrrHTxEg_19" d="M292.4,438.4c-0.5-0.4-21.7,16.8-28.2,19.6c-7.2,3-22.5-1-31.4-10.5c5,26.3,10.6,47.1,15.6,57
			c5,9.8,11.3,21.7,18.3,27.3c8.5-2.8,13.4-0.6,16.7-2.1c3.3-1.5,11.9-7.7,15.9-12c3.9-4.3,9-10.8,11.3-13.2c-2-6.7-4.1-16-8.5-28.7
			C299,467,293.4,448.5,292.4,438.4z"></path>
		
			<linearGradient id="SVGID_8_" gradientUnits="userSpaceOnUse" x1="282.442" y1="1074.3564" x2="352.1667" y2="1106.8696" gradientTransform="matrix(1 0 0 -1 0 1650)">
			<stop offset="0" style="stop-color:#C9864F"></stop>
			<stop offset="1" style="stop-color:#F5C89E"></stop>
		</linearGradient>
		<path class="st10 PrrHTxEg_20" d="M314.5,512.6c0,0-5,18.3-19.5,25.8c-2.9,1.5-26.1,3.4-26.1,3.4c3.4,7.1,14,23.8,23,32.5
			c10.1,9.9,24,27.2,26.7,29.4c5.9-0.3,23.5-3.8,28.3-8c4.2-3.6,14.9-14.4,15-26.5c-9.9-8.8-18.9-21.3-23.3-26.9
			S314.5,512.6,314.5,512.6z"></path>
		
			<linearGradient id="SVGID_9_" gradientUnits="userSpaceOnUse" x1="339.3659" y1="1013.3623" x2="428.2395" y2="1054.8047" gradientTransform="matrix(1 0 0 -1 0 1650)">
			<stop offset="0" style="stop-color:#C9864F"></stop>
			<stop offset="1" style="stop-color:#F5C89E"></stop>
		</linearGradient>
		<path class="st11 PrrHTxEg_21" d="M373.1,575.9c0,0-10.3,24.4-18.3,30.2s-17.8,5.4-24.4,5.2c6.8,10.1,14.2,14.5,28.1,21.7
			c11.4,5.8,28.8,19.9,31,19.8c7.8,0.3,31.8-2.8,41.1-18.8c-0.4-14.6,1.3-19.4,1.7-24.5C414.6,599.4,380.6,579.3,373.1,575.9z"></path>
		
			<linearGradient id="SVGID_10_" gradientUnits="userSpaceOnUse" x1="419.0547" y1="976.1995" x2="504.1169" y2="1015.8646" gradientTransform="matrix(1 0 0 -1 0 1650)">
			<stop offset="0" style="stop-color:#C9864F"></stop>
			<stop offset="1" style="stop-color:#F5C89E"></stop>
		</linearGradient>
		<path class="st12 PrrHTxEg_22" d="M439.9,614.1c0,0,6.5,21.3,0.5,28.4c-6,7.1-16.8,15.5-24,16.7c9.2,7.4,13.6,9.3,27.7,13.5
			c10.6,3.2,26.5,9.7,34.9,17.5c4.1,0.6,11.7,1.1,16.7,1.1c0.6-5.3,6.2-8.1,12.1-12.9c-1.4-12.9-2-23.4,0-30.6
			c-16.2-11.4-33.4-18.4-45.7-23S439.9,614.1,439.9,614.1z"></path>
		
			<linearGradient id="SVGID_11_" gradientUnits="userSpaceOnUse" x1="504.1012" y1="937.7498" x2="577.4078" y2="971.9333" gradientTransform="matrix(1 0 0 -1 0 1650)">
			<stop offset="0" style="stop-color:#C9864F"></stop>
			<stop offset="1" style="stop-color:#F5C89E"></stop>
		</linearGradient>
		<path class="st13 PrrHTxEg_23" d="M518.3,651.9c-3.9,15.8,3.2,20.5,0.4,27.3c-4.1,10-19.9,20.7-17.8,21.2c8.4,2.1,23.6,13.8,27.4,16.5
			c3.8,2.6,31.2,21.3,36.3,21.5c3.7-7.4,9-11.5,10.7-13.3s2.4-23.9,7.3-30C569.2,681.7,528.8,655.4,518.3,651.9z"></path>
		
			<linearGradient id="SVGID_12_" gradientUnits="userSpaceOnUse" x1="574.8422" y1="890.9667" x2="629.7318" y2="916.5623" gradientTransform="matrix(1 0 0 -1 0 1650)">
			<stop offset="0" style="stop-color:#C9864F"></stop>
			<stop offset="1" style="stop-color:#F5C89E"></stop>
		</linearGradient>
		<path class="st14 PrrHTxEg_24" d="M593.3,704.4c0,0-3.6,19.5-6.6,23.7s-12,16.9-13.8,19.4c16,7.2,27.8,29.1,31.6,34c3.9,5,7.2,8.4,9.6,7.2
			c2.4-1.2,9.5-10.7,14.9-16.4c-1.8-8.9,3.3-21.1,4.6-25.3C626.7,739,603.6,712,593.3,704.4z"></path>
		
			<linearGradient id="SVGID_13_" gradientUnits="userSpaceOnUse" x1="625.8765" y1="831.9871" x2="678.2563" y2="856.4122" gradientTransform="matrix(1 0 0 -1 0 1650)">
			<stop offset="0" style="stop-color:#C9864F"></stop>
			<stop offset="1" style="stop-color:#F5C89E"></stop>
		</linearGradient>
		<path class="st15 PrrHTxEg_25" d="M641.5,756.2c0,0-1.5,17.6-6.8,28.8c-4.7,10-13.6,14.9-14.2,15.4c5.3,5.6,11.8,22.2,18.9,38.2
			c3.8,8.6,10,17.8,11.5,23.3c7.9-1.9,33.7-12.6,37.6-41.4C670.6,793.5,648.7,760.2,641.5,756.2z"></path>
		
			<linearGradient id="SVGID_14_" gradientUnits="userSpaceOnUse" x1="650.9568" y1="750.6033" x2="719.727" y2="782.6713" gradientTransform="matrix(1 0 0 -1 0 1650)">
			<stop offset="0" style="stop-color:#C9864F"></stop>
			<stop offset="1" style="stop-color:#F5C89E"></stop>
		</linearGradient>
		<path class="st16 PrrHTxEg_26" d="M696.2,831.7c0,0-12.7,26.7-23,31.7s-15.7,7-20.5,7.2c9.2,14.7,11,35.5,11.4,38.7s-0.4,13.9,1.7,17.1
			c2.1,3.1,16.9,9.3,28.2,5.4c11.4-3.9,20.3-9.9,23.8-14c0.4-8.1,0.4-22.1-4.4-35.9C708.5,868.1,695.9,839.1,696.2,831.7z"></path>
		
			<linearGradient id="SVGID_15_" gradientUnits="userSpaceOnUse" x1="653.7787" y1="656.692" x2="737.1226" y2="695.5557" gradientTransform="matrix(1 0 0 -1 0 1650)">
			<stop offset="0" style="stop-color:#C9864F"></stop>
			<stop offset="1" style="stop-color:#F5C89E"></stop>
		</linearGradient>
		<path class="st17 PrrHTxEg_27" d="M724.8,933.1c0,0-19.4,12.2-26.8,13.1c-7.4,0.9-25.9,0.3-30.4-2c2.5,12,0,29.3-0.8,37.2s-2.1,25.4-2.4,29.1
			c10.1,5.9,16.1,9.9,24.4,9.8c11.4,0,23-11.6,29-15.5c6.1-3.9,9.6-8.4,9.5-10.4c-1.3-13.9,0-17.9,0.5-24.9
			C728.3,962.5,727.7,935.7,724.8,933.1z"></path>
		
			<linearGradient id="SVGID_16_" gradientUnits="userSpaceOnUse" x1="632.1158" y1="570.9153" x2="727.1765" y2="615.2427" gradientTransform="matrix(1 0 0 -1 0 1650)">
			<stop offset="0" style="stop-color:#C9864F"></stop>
			<stop offset="1" style="stop-color:#F5C89E"></stop>
		</linearGradient>
		<path class="st18 PrrHTxEg_28" d="M721.1,1030c0,0-27.8,7.2-37.9,4.5s-13.7-12.3-21.1-13.3c-2.1,11.6-19.8,47.1-28.3,54.9
			c9.4,7.8,6.8,21.6,20.1,26.5c11.8-3.9,16.2,0.7,17.6,2.6c7.2-4.4,20.9-15.4,26.8-24.2C704.7,1071.4,717.8,1046.6,721.1,1030z"></path>
		
			<linearGradient id="SVGID_17_" gradientUnits="userSpaceOnUse" x1="577.9669" y1="511.0327" x2="663.22" y2="550.7867" gradientTransform="matrix(1 0 0 -1 0 1650)">
			<stop offset="0" style="stop-color:#C9864F"></stop>
			<stop offset="1" style="stop-color:#F5C89E"></stop>
		</linearGradient>
		<path class="st19 PrrHTxEg_29" d="M667.1,1118.5c0,0-19.4-7.2-25-10.8c-5.7-3.7-15.9-17.5-14.4-24.7c-11.4,11.5-16.5,20.1-30.3,28
			c-6.9,3.9-20.4,14.3-22.2,16.8c5.7,8.2,9.3,15,20.9,18.9c13.2,4.4,27,8.6,40,0C645.7,1140.3,660.4,1121.9,667.1,1118.5z"></path>
		
			<linearGradient id="SVGID_18_" gradientUnits="userSpaceOnUse" x1="517.6314" y1="474.954" x2="596.1573" y2="511.5714" gradientTransform="matrix(1 0 0 -1 0 1650)">
			<stop offset="0" style="stop-color:#C9864F"></stop>
			<stop offset="1" style="stop-color:#F5C89E"></stop>
		</linearGradient>
		<path class="st20 PrrHTxEg_30" d="M603,1163.5c0,0-36.5-17-37.1-32.8c-21.3,10.2-48,21.2-54,20.5c4.3,8.1,6.6,16.2,8.6,24.9
			c13.2,6.5,26.4,11.8,33.1,10.3c8.4-5.1,18-7.9,25.4-11.7C587.3,1170.3,603,1163.5,603,1163.5z"></path>
		
			<linearGradient id="SVGID_19_" gradientUnits="userSpaceOnUse" x1="445.8812" y1="455.1707" x2="521.7789" y2="490.5623" gradientTransform="matrix(1 0 0 -1 0 1650)">
			<stop offset="0" style="stop-color:#C9864F"></stop>
			<stop offset="1" style="stop-color:#F5C89E"></stop>
		</linearGradient>
		<path class="st21 PrrHTxEg_31" d="M529.5,1190.7c0,0-14.5-2.4-19.8-14.3c-4-9-7.1-18.3-10.5-22.6c-21.4,4.6-48.2,7.4-52.8,7.2
			c3.4,9.3,5.9,25.4,2.1,27.5c12.8,3.5,28.3,7.4,38.6,7.5C497.3,1196.2,524.3,1193.3,529.5,1190.7z"></path>
		
			<linearGradient id="SVGID_20_" gradientUnits="userSpaceOnUse" x1="407.15" y1="453.7992" x2="446.7509" y2="472.2655" gradientTransform="matrix(1 0 0 -1 0 1650)">
			<stop offset="0" style="stop-color:#C9864F"></stop>
			<stop offset="1" style="stop-color:#F5C89E"></stop>
		</linearGradient>
		<path class="st22 PrrHTxEg_32" d="M443.4,1196.4c0,0-4.3-7.6-4.2-14.1c0.1-6.5,2-14.5-1-17.6c-6.9,9.3-25.1,20.5-28.5,22.5
			c12.8,1.5,12.9,4.5,18.9,6.3C434.7,1195.3,440.3,1196.8,443.4,1196.4z"></path>
		
			<linearGradient id="SVGID_21_" gradientUnits="userSpaceOnUse" x1="221.3319" y1="575.3176" x2="241.9706" y2="584.9415" gradientTransform="matrix(1 0 0 -1 0 1650)">
			<stop offset="0" style="stop-color:#C9864F"></stop>
			<stop offset="1" style="stop-color:#F5C89E"></stop>
		</linearGradient>
		<path class="st23 PrrHTxEg_33" d="M230.9,1086.9c0,0,2.3-4,4-9.6s3.1-11,4.9-12c-2.2-4.3-6.5-11.7-9.7-12.2c-3.9,4.5-8.3,14.6-8.3,14.6
			C222.1,1068.7,225,1081.9,230.9,1086.9z"></path>
		
			<linearGradient id="SVGID_22_" gradientUnits="userSpaceOnUse" x1="200.9023" y1="613.7888" x2="222.4953" y2="623.8578" gradientTransform="matrix(1 0 0 -1 0 1650)">
			<stop offset="0" style="stop-color:#C9864F"></stop>
			<stop offset="1" style="stop-color:#F5C89E"></stop>
		</linearGradient>
		<path class="st24 PrrHTxEg_34" d="M216.7,1063c0,0,5.4-17,9.7-21.6c-5-6.7-8-14.7-9.2-19.2c-1.2-4.5-7.5-21.2-11.1-23.4
			c-4.4,5.8-8.7,11.2-8.8,17.2c5.6,7.3,6.8,15.1,8.5,20.7C207.5,1042.4,212.6,1060.1,216.7,1063z"></path>
		
			<linearGradient id="SVGID_23_" gradientUnits="userSpaceOnUse" x1="180.2645" y1="674.5223" x2="210.5448" y2="688.6423" gradientTransform="matrix(1 0 0 -1 0 1650)">
			<stop offset="0" style="stop-color:#C9864F"></stop>
			<stop offset="1" style="stop-color:#F5C89E"></stop>
		</linearGradient>
		<path class="st25 PrrHTxEg_35" d="M195.3,993.3c0,0,5.3-5.4,7.4-4.3c-0.1-5.2,2.1-14.1,1-18.4s-3.7-14.6-4-16.6c-0.7,8.1-3.8,16.8-3.9,21
			C195.7,979.2,197,986.3,195.3,993.3z"></path>
		
			<linearGradient id="SVGID_24_" gradientUnits="userSpaceOnUse" x1="321.9273" y1="722.5316" x2="343.6767" y2="732.6735" gradientTransform="matrix(1 0 0 -1 0 1650)">
			<stop offset="0" style="stop-color:#C9864F"></stop>
			<stop offset="1" style="stop-color:#F5C89E"></stop>
		</linearGradient>
		<path class="st26 PrrHTxEg_36" d="M327.1,927.9c0,0,3.8-9.9,12.1-11C337.5,921.1,337.3,924.3,327.1,927.9z"></path>
		
			<linearGradient id="SVGID_25_" gradientUnits="userSpaceOnUse" x1="355.2602" y1="715.7192" x2="419.4726" y2="745.6619" gradientTransform="matrix(1 0 0 -1 0 1650)">
			<stop offset="0" style="stop-color:#C9864F"></stop>
			<stop offset="1" style="stop-color:#F5C89E"></stop>
		</linearGradient>
		<path class="st27 PrrHTxEg_37" d="M353.8,921.4c0,0,3.3-10.6,9.6-11.7c6.3-1.1,35.6,0.1,42.6,2.4c7,2.4,9.8,3.7,11.9,3.2
			c-4.2,5.3-6,9.3-6,11.9C401.1,922.8,366.8,917,353.8,921.4z"></path>
		
			<linearGradient id="SVGID_26_" gradientUnits="userSpaceOnUse" x1="422.632" y1="707.0131" x2="469.829" y2="729.0214" gradientTransform="matrix(1 0 0 -1 0 1650)">
			<stop offset="0" style="stop-color:#C9864F"></stop>
			<stop offset="1" style="stop-color:#F5C89E"></stop>
		</linearGradient>
		<path class="st28 PrrHTxEg_38" d="M423.5,933.9c0,0,7.1-9.2,8.2-14.9c14.2,2.3,35.1,13.1,41.4,17.2c-8.6,4.7-9.7,8.6-18.4,12.4
			c-8-4-17.6-11.3-22-13.1C428.5,933.8,423.5,933.9,423.5,933.9z"></path>
		
			<linearGradient id="SVGID_27_" gradientUnits="userSpaceOnUse" x1="468.2588" y1="674.2231" x2="510.87" y2="694.093" gradientTransform="matrix(1 0 0 -1 0 1650)">
			<stop offset="0" style="stop-color:#C9864F"></stop>
			<stop offset="1" style="stop-color:#F5C89E"></stop>
		</linearGradient>
		<path class="st29 PrrHTxEg_39" d="M463.3,958.6c4.6-7.8,16.7-5.7,23.1-13.3c9.7,6.5,29.3,25.6,30.7,28.7c-11.9-1.2-30.1,2.6-37.3,2.6
			C471.6,968.6,470.6,963,463.3,958.6z"></path>
		
			<linearGradient id="SVGID_28_" gradientUnits="userSpaceOnUse" x1="576.9214" y1="446.8644" x2="623.9805" y2="468.8083" gradientTransform="matrix(1 0 0 -1 0 1650)">
			<stop offset="0" style="stop-color:#C9864F"></stop>
			<stop offset="1" style="stop-color:#F5C89E"></stop>
		</linearGradient>
		<path class="st30 PrrHTxEg_40" d="M618,1173.1c0,0-16.9,6.3-26.5,9.2c-9.5,2.9-11.9,7.4-13.4,10.2c1,5.3,2.9,16.6,5.3,19.3
			c5.9-1.7,16.1-5.1,23-9.3c6.9-4.2,12.8-1,13.4-8.8C620.4,1185.9,620.8,1179,618,1173.1z"></path>
		
			<linearGradient id="SVGID_29_" gradientUnits="userSpaceOnUse" x1="576.4153" y1="384.1024" x2="637.5374" y2="412.6041" gradientTransform="matrix(1 0 0 -1 0 1650)">
			<stop offset="0" style="stop-color:#C9864F"></stop>
			<stop offset="1" style="stop-color:#F5C89E"></stop>
		</linearGradient>
		<path class="st31 PrrHTxEg_41" d="M622.4,1209.8c0,0-9.8,8-17.2,9.4s-18.6,2.7-20.5,4.3c4.2,11.1,1,28,0.8,34.2c-0.3,8.3,0.2,22.4,2.2,27.5
			c10.5,1.4,15.3,2.1,19.2,2c6.6-0.2,18.2-4.5,21.5-7.7c-1.1-9,0.3-24.2,0-38.2C628.3,1237.4,626.5,1216.8,622.4,1209.8z"></path>
		
			<linearGradient id="SVGID_30_" gradientUnits="userSpaceOnUse" x1="564.663" y1="306.3803" x2="639.8247" y2="341.4288" gradientTransform="matrix(1 0 0 -1 0 1650)">
			<stop offset="0" style="stop-color:#C9864F"></stop>
			<stop offset="1" style="stop-color:#F5C89E"></stop>
		</linearGradient>
		<path class="st32 PrrHTxEg_42" d="M628.2,1291.3c0,0-12.1,6.6-20.3,6.7s-20.8,0.4-22.5,1.2c1,10.9-7.3,25.6-8.8,32.6c-1.4,6.7-5.9,15.3-6.1,19
			c3.2,2.5,4.8,5,12.6,4.7s18.7,0.8,20.6,4C608.9,1354.9,628.2,1315.6,628.2,1291.3z"></path>
		
			<linearGradient id="SVGID_31_" gradientUnits="userSpaceOnUse" x1="531.2865" y1="251.7599" x2="601.275" y2="284.3961" gradientTransform="matrix(1 0 0 -1 0 1650)">
			<stop offset="0" style="stop-color:#C9864F"></stop>
			<stop offset="1" style="stop-color:#F5C89E"></stop>
		</linearGradient>
		<path class="st33 PrrHTxEg_43" d="M599.4,1369.5c0,0-28.1-1.7-31.9-11.2c-8.1,11.9-30.4,38.3-32,41.6c5.7,1.6,14.7,12,22.5,10.4
			C565.7,1408.8,591.9,1389.2,599.4,1369.5z"></path>
		
			<linearGradient id="SVGID_32_" gradientUnits="userSpaceOnUse" x1="477.2585" y1="205.3681" x2="559.2918" y2="243.6208" gradientTransform="matrix(1 0 0 -1 0 1650)">
			<stop offset="0" style="stop-color:#C9864F"></stop>
			<stop offset="1" style="stop-color:#F5C89E"></stop>
		</linearGradient>
		<path class="st34 PrrHTxEg_44" d="M552.5,1419.8c-11.3,2.4-18.7-11.1-26.3-13.1c-5.2,4.3-24.7,22.9-49.6,31.2c4.8,8,9.7,11,17.7,11.7
			C505.2,1450.5,539.9,1427.5,552.5,1419.8z"></path>
		
			<linearGradient id="SVGID_33_" gradientUnits="userSpaceOnUse" x1="412.6951" y1="178.0775" x2="477.5675" y2="208.328" gradientTransform="matrix(1 0 0 -1 0 1650)">
			<stop offset="0" style="stop-color:#C9864F"></stop>
			<stop offset="1" style="stop-color:#F5C89E"></stop>
		</linearGradient>
		<path class="st35 PrrHTxEg_45" d="M481.2,1458.2c-6-5-10.6-14.5-19.9-15.2c-10.2,4.2-33.9,9.2-46.1,8.5c-3.7,4.1-1.5,11.2-2.4,13.1
			c3.9,0.9,11.9,4.5,19.7,4.2C445,1468.4,469,1460.1,481.2,1458.2z"></path>
		
			<linearGradient id="SVGID_34_" gradientUnits="userSpaceOnUse" x1="351.0647" y1="177.5001" x2="399.5699" y2="200.1184" gradientTransform="matrix(1 0 0 -1 0 1650)">
			<stop offset="0" style="stop-color:#C9864F"></stop>
			<stop offset="1" style="stop-color:#F5C89E"></stop>
		</linearGradient>
		<path class="st36 PrrHTxEg_46" d="M404.6,1471.1c-3.5-5.7-1.5-17.3-9.4-19.6c-11.7,1.3-41.6-0.5-49.5,0.4c-0.4,5.3,1.5,8.4,4.3,10.1
			s8.1,4.5,9.4,9.7C365.2,1472,400.2,1473.4,404.6,1471.1z"></path>
		
			<linearGradient id="SVGID_35_" gradientUnits="userSpaceOnUse" x1="238.3524" y1="169.0961" x2="336.0136" y2="214.6363" gradientTransform="matrix(1 0 0 -1 0 1650)">
			<stop offset="0" style="stop-color:#C9864F"></stop>
			<stop offset="1" style="stop-color:#F5C89E"></stop>
		</linearGradient>
		<path class="st37 PrrHTxEg_47" d="M341.2,1469.5c-7.6-4-6.9-15.1-9.8-19c-1.6-2.2-64.6-12.9-97.2-8.2C268.1,1447.3,302,1462,341.2,1469.5z"></path>
	</g>
	
		<linearGradient id="SVGID_36_" gradientUnits="userSpaceOnUse" x1="24.569" y1="105.5398" x2="593.3014" y2="370.744" gradientTransform="matrix(1 0 0 -1 0 1650)">
		<stop offset="0" style="stop-color:#C9864F"></stop>
		<stop offset="1" style="stop-color:#F5C89E"></stop>
	</linearGradient>
	<path class="st38 PrrHTxEg_48" d="M575,1247.8c0,0-18.7,119.1-126.7,147.8c-108,28.7-197.2-11.2-262.6,3.5c-62.1,14-109.9,33.9-125.2,87.2
		c-14.6,51,20.6,84.4,33.5,92.2c13.3,8,46.8,22.7,69.4,21.8c22.6-0.9,35-1.2,43.8,4.1c-21.2,8.5-38.6,15.5-50.3,14.8
		s-26.2-11.8-36.9-9.2c-3.3,5.4,0.6,6.7,1.5,10.8c0.6,2.6-1.5,4.1-2.5,5.7c-6.7,0.5-28-14.7-45.3-27.1c-6.2-0.1-4.4,14.1-11.8,17.6
		c-12.8-18.2-27-61.9-28.4-108.9c-8.4-4.8-14.6,1.7-17.7,2c-1.2-4.2,0.9-10.1,4.4-14.7s5.6-11.3,4.8-13.1
		c-1.7-3.7-11.3-3.6-12.9-5.7s3.6-9.6,11.1-18.8c6.3-7.8,14.7-17.1,20.1-20.3s15.2-8,19.3-10.7c7.2-4.7,26.1-26.4,36.2-32.6
		c-0.5-10.5-21.2-12.2-25.8-16c6.3-7.5,17.7-6.6,25.5-9.9s38.2-6.3,45.8-6.9c27.5-2.3,68.1,2.4,72.3,2.5c6.3,0.1,8.6-5.9,8-7.4
		c-2.6-6.1-8.4-4.8-12-7.9s-0.9-8,1.1-8.6s21.4-2.4,34.4,2.6c9.7,3.8,68.1,26.8,89.8,25.6c15.4-0.9,16.8-10,15.6-13
		s-5.3-8.6-3.5-12.1c8-1.9,23,2.5,37.5,9.8s54.9,2.7,64.3-1.1c2.1-1.9,2.2-3,3.1-4c-2-3.3-3.7-9.1-20.9-11.6
		c-18.5-2.7-20.5-14.5-20.5-14.5c10.1-2.4,28.4-2.4,36.4-1.7c7.6,0.7,60.2,4,71.7-11c0-5.9-13-6.3-13.4-12.2
		c1.9-4.1,10.2-10.2,19.5-12.2s16.1-6.3,19-10C549.8,1270.8,562.7,1250.5,575,1247.8z"></path>
	
		<linearGradient id="SVGID_37_" gradientUnits="userSpaceOnUse" x1="598.603" y1="383.2074" x2="731.173" y2="445.0258" gradientTransform="matrix(1 0 0 -1 0 1650)">
		<stop offset="0" style="stop-color:#C9864F"></stop>
		<stop offset="1" style="stop-color:#F5C89E"></stop>
	</linearGradient>
	<path class="st39 PrrHTxEg_49" d="M639.3,1349.3c6.1-1.1,7.6-0.6,12.3-5.9c2.4-2.7,4.2-8,7.6-13.4c9.1-14.9,21.5-37.9,26.7-63.3
		c6.4-31.6,9.5-51.4,12.8-65.3c-6.1-13.4-5.8-20-2.1-23.7c11.5-0.8,19.1,19.7,22.9,21.8c-3.4-22.1-7.8-34.9-16.9-47.9
		c-9.2-13.1-17.9-26.1-17.9-26.1c-3,6.8-13.4,17.4-22.7,24.1c2.9,8.6,14.4,62.1,5.3,117.9c-4.6,28.4-23.7,61.9-25.7,65.7
		C639.4,1337.1,635.8,1342.6,639.3,1349.3z"></path>
	
		<linearGradient id="SVGID_38_" gradientUnits="userSpaceOnUse" x1="269.0443" y1="656.0717" x2="605.7668" y2="813.088" gradientTransform="matrix(1 0 0 -1 0 1650)">
		<stop offset="0" style="stop-color:#C9864F"></stop>
		<stop offset="1" style="stop-color:#F5C89E"></stop>
	</linearGradient>
	<path class="st40 PrrHTxEg_50" d="M641.3,919c-0.7,26.8-59.1,159.7-172.8,171.3c-48.8,5-101.8-9.5-144.8-40.7c-62.2-45.2-99.3-126-55.8-218.8
		c3.1,1.5,1.2,13,6.9,17.2c6.4-4.7,26.5-37.8,36.1-58.1s21.8-24.8,26.5-26.5c-2.9,9.9-17.5,29.2-17.2,36.9
		c7.8,3.2,12.6,1.6,16.3-0.9c3.7-2.5,79.7-55.4,91.4-57.9c11.7-2.5,15.3-0.8,15.3-0.8s-13.1,18.1-30.8,26.1
		c-6.1,7.4-12.1,16.7-12.1,16.7s1.7,5.7,6.6,5.8c4.8,0.1,49.3-8.4,60.9-7.8c11.6,0.6,31.2-3.2,35.7,4.9c-7.2,4.3-28.9,5-34,14.7
		c9.1,6.2,6,8.9,28.9,10.5s9.2,12.2,12.1,14.1c2.9,1.9,29.5,8.9,50,17.1c20.5,8.3,15.5,13.3,16.6,14s-13.1,4.8-16.2,8.5
		c8.9,4.9,26.5,39.1,23,51.7c-8.2-0.6-15.1-5.1-17.7-13.4c-1.9-5.9-89.2-101.9-214.7-77.5c-45.8,8.9-67.8,41-73.6,66.2
		c-4.5,19.6,2.8,33.6,2.1,38c-1.7,11,3.9,20.2,7,21.9c5.6-4.4,7.3-8.4,7.4-10.4c0-2.1-3.3-27.9,9-28.8c6.4,14.5,9.3,83.9,35.1,90.3
		c2.6-7.5-0.4-17.5-4.6-28.4c-2.6-6.6-1-10.3,0.8-15.6c6.2,4.1,9,8,14.7,25.8c9.2,28.9,11.9,32.7,17.3,35c7.3,3.2,7.3,3.2,7.3,3.2
		s3-4,0.2-14.2s-4.5-14.3,2.2-20.4c8.9,6.6,26.8,52.2,40.1,61.5c11.3-4.2,27.1,3.4,34.4,3.2s15.2-2.1,17.1-5.8s-1.8-9.6-4.5-16.8
		c-2.6-7.2,3.4-11,7.2-10.3c3.8,0.7,32.7,9.8,49.3,5.4c10.8-2.8,14.6-5.9,16.4-9c-7.1-10.7-35-11.6-40.1-15.2c4.9-9,9.9-9.2,18-8.9
		c7.6,0.3,65.7-2.3,82.6-23.3c4.2-9.6-6.7-12.3-4.1-19.5c1.7-4.7,24.3-17.1,31.6-29.8c6.5-11.4,8.7-13.5,8.7-13.5
		S637.3,906,641.3,919z"></path>
	
		<linearGradient id="SVGID_39_" gradientUnits="userSpaceOnUse" x1="582.4822" y1="851.9014" x2="754.1898" y2="931.9699" gradientTransform="matrix(1 0 0 -1 0 1650)">
		<stop offset="0" style="stop-color:#C9864F"></stop>
		<stop offset="1" style="stop-color:#F5C89E"></stop>
	</linearGradient>
	<path class="st41 PrrHTxEg_51" d="M465.9,542.8c21.9-5.6,118.3,14.6,130.7,27.7c-10.1,3.7-21.7-3.8-30.9,4.7c1.4,10.5,10.4,13.3,17.7,15.3
		c16.4,4.5,30.3,12.3,44,22.2c19.2,13.9,42.2,21.3,62,34.5c16.5,11,30.6,24.7,44.7,38.3c4,3.9,9,8.2,7,16.7
		c-13.9-2.7-23.4-15-37-17.8c-4.1,7.1,0.9,10.3,4.8,13.7c16.2,14,30.5,29.7,43.8,46.4c3.6,4.6,8.2,8.7,9.4,14.9
		c1.6,6.6-4.1,11-4.9,16.7c6.5,24.6,21.5,45.1,31.4,67.9c3.1,7.1,4.8,13.4,1.3,20.3c-5.4,11-3.3,22.5-1.1,33.3
		c4.7,23.4,5.7,47.1,6.5,70.8c0,1.2-0.4,2.3-0.7,3.6c-2.2,4.8-7.9,4.7-12.1,8.2c-6.9,12.9-2.4,30.9-16.1,42
		c-4.7,3.5-11.5-0.8-16,4.3c-4.7-5.8-1-11.1,1.1-15.3c20.9-42.2,17.9-87.6,13.5-131.5c-3.5-35.1-18.3-68.8-34.6-100.8
		c-26-50.9-58.4-97-103.8-132.6c-32.3-25.3-66.2-48-103-66.4c-16.4-8.2-32.1-17.9-47.8-27.4C472,550.1,467.1,548.2,465.9,542.8z"></path>
	
		<linearGradient id="SVGID_40_" gradientUnits="userSpaceOnUse" x1="174.5306" y1="1264.6311" x2="729.7797" y2="1523.548" gradientTransform="matrix(1 0 0 -1 0 1650)">
		<stop offset="0" style="stop-color:#C9864F"></stop>
		<stop offset="1" style="stop-color:#F5C89E"></stop>
	</linearGradient>
	<path class="st42 PrrHTxEg_52" d="M732,337.2c-6.4-0.3-9.4,6.2-10.4,9.8c-1,3.6-1.3,15.3-8.9,19.4s-21.2,21.2-25.9,26c-5.9-6-2.5-16.5-3.7-22.6
		c-1.1-6.1-10.6-12.9-11.5-18.5s7-11.8,4.4-23.9c-7.9-12.7-13-20.9-13-20.9c2.7-6,8.2-19.4,8.1-30.5c-0.1-11.1-2.2-27.7,1.8-40.5
		c3.9-12.8,29.8-73,30.6-105.7s-1.8-44.3-2.3-49.8s-2.8-24.2-14.6-34.8c-4.7,11.5-0.9,41.4-0.7,49.3s0.8,19.1-2.2,28.9
		s-7.2,39.8-11.8,49.2c-4.6,9.4-9.3,24.1-12.7,29.5c-3.5,5.5-13.1,37.3-30.3,47.5c-3.5-7.1-5.2-14.1-10.2-15.4s-8.3-2.1-9.7,0.2
		s-3.9,8.8-7.2,8.8c0.6-4.2,0.3-25,0.1-45.5c11.5,11.2,19.7,22.1,23.6,30.1c6.1,5.4,12.7,8.7,14.1-0.1c2.6-15.5,2.1-47.7,2.1-55.1
		c0.1-10.2,0.2-38.9-4.5-63.4c-4.8-24.5-6.9-24.7-19.4-39.7c0.9,8.3,2.1,19.3,5.6,38.1c3.4,18.8,6.7,43,4.2,60
		c-13.1-3.5-9.8-17-16.9-43.4c-5.9-26.8-12.6-28.7-25.7-37.8c-0.3,2.5,2.1,11.3,3.9,19.8s2.6,25.7,1.8,33.4
		c-5.5-7.7-11.7-9.4-18.7-1.1c-11.3-7.3-35.4-52.2-42-62.2s-24.2-29.1-42.4-38.4c0.9,1.5,10.6,16.6,21.3,30.4s13.9,22.6,16.9,32
		c0,0-3.3,4.6-11.7,1.7c-8.4-2.9-60.9-46.6-67.8-51.5c-6.9-4.8-26.8-17.3-34.3-21.5s-13.8-4.1-25.5,1.7c9.5,3.9,29.8,16,39.5,26.8
		c9.8,10.8,23.1,31.4,30,44.6c-17.4,6.5-29.1-2.3-41.2-9.3s-44.6-26.5-55.4-32.6c-10.9-6.1-26.6-7.7-34.5-7.9c0,0,0.1,6.2,4.4,10.2
		s10,5.4,19.4,9.6c9.4,4.2,12.3,14.4,17,18.5c0,0-0.8,2.8-3.7,8.5c-2.9,5.7-14.4,4.7-25.2,5.1c-10.8,0.3-10.9-1.2-25.1-6.2
		S263.8,80.1,252,76.4c-11.9-3.7-43.3-10.9-50.6-11.9s-11.3,4.7-14.1,8.3c5.2,1.1,32.2,9.9,50.5,15.6s44.5,20.4,50.8,27.6
		c-0.9,4.3-12.9,3.9-15.6,5.7c-2.7,1.8-0.1,11.7-2.3,15.3c-4.6,1.7-10.6,1.6-22.4-0.2c-11.8-1.8-28.4-2.2-36.6,0
		c-8.2,2.1-40.1,5.8-43,6.4c-2.9,0.6-7.6,5.8-4.2,10.4c27.9-5.3,64.5,6.5,71.4,13.2c-3.7,16.3-28.1,22.7-40.5,29.4
		s-60.3,51.5-61.2,52.7s-3.5,6.7,0,8.8c8.2,2,18.8-10.7,25.1-12.5c6.3-1.9,17.6-9.3,25.2-6.9c-0.5,15.3-19.2,36.8-24.2,42.2
		s-14.6,24.2-16.2,27.3c-1.7,3-0.6,10.1,3.7,11.3c22.7-35.1,43.8-27.5,54.4-32s53.5-99.7,114.3-127.7
		c52.9-24.4,116.6-27.1,177.8-15.2c5.1,6.6,14.2,18.3,14.5,27.9c-5.7-0.8-18.5-12.8-24-8.6c-2.5,4.7,9,19.5,5.9,24.2
		s-16.9-14.4-49.8-12.8c-0.4,5.2-2.3,10.6-3.6,12c17.4,2.1,42.5,23.1,45.2,30.3c-11,5.4-34.6,9.5-43.5,11.9s-13,11.9-11.5,17.3
		c14.8-0.7,28.1,0.8,30.6,7.1c-2.1,7.4-4,14-0.7,25c-2.7,6.5-25.9,36.6-4.9,66.2c2.5-2.9,5.9-15,12.2-13.9c0.1,6.7-1,38,23.3,47.1
		c-2.3-13.5,10.7-17.6,11.9-22c1.1-4.5-12-9.3-11.7-14.3c5.5-11.2,5.3-13.2,9.6-13.8c4.2-0.6,15.7,2.2,21.7,4
		c5.8,5.6,19,24.4-0.5,56c-14.8,15.9-15.9,24.2-11.6,29.2s21.2,21.7,26.7,26.8c5.5,5.1,21.3,20.5,36.2,15.5c5-6.8,4.4-9.4-1.7-11.5
		c-6-2.1-10.3-4.1-8.2-8.8c2.2-4.7,10.7-5.9,8.5-13s-16-3.1-20.1-18.1c9.3-14.8,12.7-23.1,12.9-25.8s-4.5-13.3-0.1-18.9
		c4.3-5.5,15.8-14.3,16.8-20c-9.6-14.7-11.6-33-6.6-43c9.7-9.6,14.9-5.7,15.8-5c0.9,0.7,8.6,9.8,5.7,14.8
		c-5.7,7.3-12.1,21.4-6.3,26.9s20.2,16.3,24.1,19.9c3.9,3.6,14.4,13.1,19.3,14.4s5.4,8.3,5.1,11.3c-6.6,3.8-10.1,12.8-7.4,18.4
		s12.9,10.3,13.1,16.5s-11.3,9.5-8.1,15.5c3.1,6,12.2,3.8,15.5,5.3s2.7,8.1,8.3,13.5s-12.2,8.8-11.8,16.2c0,0,11.5,3.8,17.9,0
		s10.4-6.4,13.1-10.7c2.7-4.2,12.7-19.9,19.2-26.7c6.5-6.7,21.1-17.9,23.4-23.2c-3.2-8.6-1.2-14,1-17.4S741.2,357.2,732,337.2z
		 M568.7,192.8c-13-10.6-22.2-13.8-27.7-12.8s-0.3,12,3.1,20.4c3.5,8.4,11.9,37.9,6.8,52.1c-8.8,2.4-15.2,4.7-18.4,13.3
		c-3.2,8.6-7.1,22-9.1,24c-2.7-13.3,1.4-21.8,3.6-25.7c2.1-3.9,19.3-27.5,18.9-39.6c-6.8-13.4-7.8-25.8-10.5-33.9
		c-1.6-4.9-9-24.6-20.3-41.8c2.1,0.5,4.2,1.1,6.4,1.7c22.3,6,42.3,16.8,58.8,29C577.4,185.7,573.7,190.7,568.7,192.8z"></path>
	
		<linearGradient id="SVGID_41_" gradientUnits="userSpaceOnUse" x1="589.1602" y1="1190.4351" x2="689.8383" y2="1237.3821" gradientTransform="matrix(1 0 0 -1 0 1650)">
		<stop offset="0" style="stop-color:#C9864F"></stop>
		<stop offset="1" style="stop-color:#F5C89E"></stop>
	</linearGradient>
	<path class="st43 PrrHTxEg_53" d="M589.3,350.7c19.5,21.8,26.9,45.6,21,73.4c-3,14.2-0.4,28.6,1.5,42.7c1.9,13.8,11.9,23.2,29.6,31.5
		c23.4-6.6,45.1-20.7,69.7-22.2c12.2,9,12.2,9,10,19.3c-6.8,2.5-8.1-6.3-15.1-6.5c-2.2,0.2-5.2,2-7.9,6.4c-0.1,7,10.6,16.4-1.7,23.5
		c-9.3-1.3-8.6-13.2-20.9-16c-2.2-0.4-6.9,3.3-12.4,5.6c-23.7,10-44.2,2.2-57-20.3c-6.8-11.9-15.4-23-10.5-38.1
		c0.6-1.9-0.8-4.6-1.8-6.7c-4.8-10.3-5.6-20.5,0.4-30.6c-5-8.8-11.7-16.7-5.8-26.1C573,371.2,573.2,364.5,589.3,350.7z"></path>
	
		<linearGradient id="SVGID_42_" gradientUnits="userSpaceOnUse" x1="557.5878" y1="1413.4515" x2="587.6183" y2="1427.4551" gradientTransform="matrix(1 0 0 -1 0 1650)">
		<stop offset="0" style="stop-color:#C9864F"></stop>
		<stop offset="1" style="stop-color:#F5C89E"></stop>
	</linearGradient>
	<path class="st44 PrrHTxEg_54" d="M567.6,238.1c1.3-6.6,4-16.6,13.5-24.8C588.5,228.9,571,232.4,567.6,238.1z"></path>
	
		<linearGradient id="SVGID_43_" gradientUnits="userSpaceOnUse" x1="625.3453" y1="1329.8191" x2="636.2269" y2="1334.8931" gradientTransform="matrix(1 0 0 -1 0 1650)">
		<stop offset="0" style="stop-color:#C9864F"></stop>
		<stop offset="1" style="stop-color:#F5C89E"></stop>
	</linearGradient>
	<path class="st45 PrrHTxEg_55" d="M635.3,330.1c-8.9-6.7-9.3-13.1-6.3-24C633.3,315,638.9,319.6,635.3,330.1z"></path>
</g>
<linearGradient id="SVGID_44_" gradientUnits="userSpaceOnUse" x1="406.2073" y1="399.2084" x2="432.2357" y2="411.3457" gradientTransform="matrix(1 0 0 -1 0 1650)">
	<stop offset="0" style="stop-color:#C9864F"></stop>
	<stop offset="1" style="stop-color:#F5C89E"></stop>
</linearGradient>
<path class="st46 PrrHTxEg_56" d="M397.2,1221.5c6.4-5.2,12.3-3.5,17.8-3.2c24.8,31.9,27,41.9,11,56.2C423.7,1252.6,398.5,1244.5,397.2,1221.5z"></path>
<linearGradient id="SVGID_45_" gradientUnits="userSpaceOnUse" x1="374.2976" y1="1176.8822" x2="492.3283" y2="1231.9208" gradientTransform="matrix(1 0 0 -1 0 1650)">
	<stop offset="0" style="stop-color:#C9864F"></stop>
	<stop offset="1" style="stop-color:#F5C89E"></stop>
</linearGradient>
<path class="st47 PrrHTxEg_57" d="M493.8,426.1c-7.9-4.3-14.3,1.2-21.3-1.2c-4.1-10.7-2.2-23.5-10-33.3c-11.9-4.9-20.9,4.2-31.3,5.9
	c0-0.8,2.1-26.4-12.4-27.2c-9.9,8-9.7,20.9-14.4,31.8c-9.4-4-13.3-13.5-23.3-16.7c-13.1,7.3-8.1,25.5-18.9,32.8
	c0.4,34.4,6.3,45.8,23.1,45.7c0.7-6.2-5.5-10.7-3.7-18.7c3.9-3.3,7.6-8.8,8.9-15.3c1.4-7.1,3.7-12.4,13.2-11.6
	c1.6,15.7-6.1,30.5-5.9,46.5c17.2-2,18.6-15.5,22.2-26.1c4.1-12,9.8-35.7,11-40.3c3.7,6.2,7.6,12.5,11.5,19c-6,13,0.4,24.4,4.3,34.6
	c-1.7,12.6-13.9,15.2-19.4,24.4c6.6,6.2,13.6,4.1,19.4,3.4c15.2-8.2,19.5-23.8,28.8-37.5c3.7,11.6-6.8,18.2-5,27
	c-0.4,6.6,7.2,9.8,6.3,16.4c-2.8,9.7-13.5,12.7-18.6,20.7c20.4,10.1,26.7,4.5,45.4-39.9C495,454.5,498.4,438.6,493.8,426.1z"></path>
<g>
	
		<linearGradient id="SVGID_46_" gradientUnits="userSpaceOnUse" x1="58.8127" y1="1101.5839" x2="147.2576" y2="1142.8264" gradientTransform="matrix(1 0 0 -1 0 1650)">
		<stop offset="0" style="stop-color:#C9864F"></stop>
		<stop offset="1" style="stop-color:#F5C89E"></stop>
	</linearGradient>
	<path class="st48 PrrHTxEg_58" d="M123.1,460.1c-4.7-10-10.3-20.3-23.6-20.9c-7.7,5.9-7.7,5.9-10.4,16c5.5,9.6,11.1,19.4,11.6,31.5
		c-10.2-4.4-18.8-14.5-33.5-9.4c-8.3,14.4,3.6,30.5-1.3,43.5c3.8,10.7,10.8,16.8,14.8,24.4c-7.8,12.2-9.8,18.8-8.1,26.3
		c4.1,17.3,23.4,35.3,41.1,37.3c10,1.1,18.6-2.8,24.4-11.2c1.8-2.6,0.5-5.7-2.1-7.5c-5.3-2.7-10.7,2.6-17.9-2
		c-5-3.3-10.9-8.8-10.4-19.3c6.3,0,14.2,5.2,19.7-5.5c-8.6-7.1-20.8-11-27-24.8c4.5-15.4-4.1-33.2,0.6-51.2
		c11.5,15.6,20.6,32.6,34.6,46.2c4.4,4.3,8.6,10.5,16,5.5c0.4-1.6,1.4-3.1,1-3.8C139.5,511.5,134.5,484.5,123.1,460.1z"></path>
	
		<linearGradient id="SVGID_47_" gradientUnits="userSpaceOnUse" x1="144.8685" y1="1147.2206" x2="190.2142" y2="1168.3656" gradientTransform="matrix(1 0 0 -1 0 1650)">
		<stop offset="0" style="stop-color:#C9864F"></stop>
		<stop offset="1" style="stop-color:#F5C89E"></stop>
	</linearGradient>
	<path class="st49 PrrHTxEg_59" d="M189.9,486c-8.4-5.7-12-16.6-20.8-23.1c-10.5-0.4-20.9,0.1-34.5-5c7.8,23.4,22.3,37,34.5,49
		c7.2,12.7,1.4,21.5-4.2,31.5c13.7,4.8,23.4-1.3,24.4-16.2C190,510.6,192.6,498.7,189.9,486z"></path>
</g>
<style data-made-with="vivus-instant">.PrrHTxEg_0{stroke-dasharray:1 3;stroke-dashoffset:2;}.start .PrrHTxEg_0{animation:PrrHTxEg_draw 3333ms ease-in-out 0ms forwards;}.PrrHTxEg_1{stroke-dasharray:2 4;stroke-dashoffset:3;}.start .PrrHTxEg_1{animation:PrrHTxEg_draw 3333ms ease-in-out 28ms forwards;}.PrrHTxEg_2{stroke-dasharray:2 4;stroke-dashoffset:3;}.start .PrrHTxEg_2{animation:PrrHTxEg_draw 3333ms ease-in-out 56ms forwards;}.PrrHTxEg_3{stroke-dasharray:18170 18172;stroke-dashoffset:18171;}.start .PrrHTxEg_3{animation:PrrHTxEg_draw 3333ms ease-in-out 84ms forwards;}.PrrHTxEg_4{stroke-dasharray:2 4;stroke-dashoffset:3;}.start .PrrHTxEg_4{animation:PrrHTxEg_draw 3333ms ease-in-out 112ms forwards;}.PrrHTxEg_5{stroke-dasharray:2 4;stroke-dashoffset:3;}.start .PrrHTxEg_5{animation:PrrHTxEg_draw 3333ms ease-in-out 141ms forwards;}.PrrHTxEg_6{stroke-dasharray:2 4;stroke-dashoffset:3;}.start .PrrHTxEg_6{animation:PrrHTxEg_draw 3333ms ease-in-out 169ms forwards;}.PrrHTxEg_7{stroke-dasharray:5010 5012;stroke-dashoffset:5011;}.start .PrrHTxEg_7{animation:PrrHTxEg_draw 3333ms ease-in-out 197ms forwards;}.PrrHTxEg_8{stroke-dasharray:2 4;stroke-dashoffset:3;}.start .PrrHTxEg_8{animation:PrrHTxEg_draw 3333ms ease-in-out 225ms forwards;}.PrrHTxEg_9{stroke-dasharray:1144 1146;stroke-dashoffset:1145;}.start .PrrHTxEg_9{animation:PrrHTxEg_draw 3333ms ease-in-out 254ms forwards;}.PrrHTxEg_10{stroke-dasharray:1452 1454;stroke-dashoffset:1453;}.start .PrrHTxEg_10{animation:PrrHTxEg_draw 3333ms ease-in-out 282ms forwards;}.PrrHTxEg_11{stroke-dasharray:104 106;stroke-dashoffset:105;}.start .PrrHTxEg_11{animation:PrrHTxEg_draw 3333ms ease-in-out 310ms forwards;}.PrrHTxEg_12{stroke-dasharray:76 78;stroke-dashoffset:77;}.start .PrrHTxEg_12{animation:PrrHTxEg_draw 3333ms ease-in-out 338ms forwards;}.PrrHTxEg_13{stroke-dasharray:6753 6755;stroke-dashoffset:6754;}.start .PrrHTxEg_13{animation:PrrHTxEg_draw 3333ms ease-in-out 367ms forwards;}.PrrHTxEg_14{stroke-dasharray:707 709;stroke-dashoffset:708;}.start .PrrHTxEg_14{animation:PrrHTxEg_draw 3333ms ease-in-out 395ms forwards;}.PrrHTxEg_15{stroke-dasharray:203 205;stroke-dashoffset:204;}.start .PrrHTxEg_15{animation:PrrHTxEg_draw 3333ms ease-in-out 423ms forwards;}.PrrHTxEg_16{stroke-dasharray:232 234;stroke-dashoffset:233;}.start .PrrHTxEg_16{animation:PrrHTxEg_draw 3333ms ease-in-out 451ms forwards;}.PrrHTxEg_17{stroke-dasharray:238 240;stroke-dashoffset:239;}.start .PrrHTxEg_17{animation:PrrHTxEg_draw 3333ms ease-in-out 480ms forwards;}.PrrHTxEg_18{stroke-dasharray:269 271;stroke-dashoffset:270;}.start .PrrHTxEg_18{animation:PrrHTxEg_draw 3333ms ease-in-out 508ms forwards;}.PrrHTxEg_19{stroke-dasharray:285 287;stroke-dashoffset:286;}.start .PrrHTxEg_19{animation:PrrHTxEg_draw 3333ms ease-in-out 536ms forwards;}.PrrHTxEg_20{stroke-dasharray:275 277;stroke-dashoffset:276;}.start .PrrHTxEg_20{animation:PrrHTxEg_draw 3333ms ease-in-out 564ms forwards;}.PrrHTxEg_21{stroke-dasharray:274 276;stroke-dashoffset:275;}.start .PrrHTxEg_21{animation:PrrHTxEg_draw 3333ms ease-in-out 593ms forwards;}.PrrHTxEg_22{stroke-dasharray:271 273;stroke-dashoffset:272;}.start .PrrHTxEg_22{animation:PrrHTxEg_draw 3333ms ease-in-out 621ms forwards;}.PrrHTxEg_23{stroke-dasharray:257 259;stroke-dashoffset:258;}.start .PrrHTxEg_23{animation:PrrHTxEg_draw 3333ms ease-in-out 649ms forwards;}.PrrHTxEg_24{stroke-dasharray:216 218;stroke-dashoffset:217;}.start .PrrHTxEg_24{animation:PrrHTxEg_draw 3333ms ease-in-out 677ms forwards;}.PrrHTxEg_25{stroke-dasharray:259 261;stroke-dashoffset:260;}.start .PrrHTxEg_25{animation:PrrHTxEg_draw 3333ms ease-in-out 706ms forwards;}.PrrHTxEg_26{stroke-dasharray:267 269;stroke-dashoffset:268;}.start .PrrHTxEg_26{animation:PrrHTxEg_draw 3333ms ease-in-out 734ms forwards;}.PrrHTxEg_27{stroke-dasharray:264 266;stroke-dashoffset:265;}.start .PrrHTxEg_27{animation:PrrHTxEg_draw 3333ms ease-in-out 762ms forwards;}.PrrHTxEg_28{stroke-dasharray:272 274;stroke-dashoffset:273;}.start .PrrHTxEg_28{animation:PrrHTxEg_draw 3333ms ease-in-out 790ms forwards;}.PrrHTxEg_29{stroke-dasharray:239 241;stroke-dashoffset:240;}.start .PrrHTxEg_29{animation:PrrHTxEg_draw 3333ms ease-in-out 819ms forwards;}.PrrHTxEg_30{stroke-dasharray:226 228;stroke-dashoffset:227;}.start .PrrHTxEg_30{animation:PrrHTxEg_draw 3333ms ease-in-out 847ms forwards;}.PrrHTxEg_31{stroke-dasharray:215 217;stroke-dashoffset:216;}.start .PrrHTxEg_31{animation:PrrHTxEg_draw 3333ms ease-in-out 875ms forwards;}.PrrHTxEg_32{stroke-dasharray:105 107;stroke-dashoffset:106;}.start .PrrHTxEg_32{animation:PrrHTxEg_draw 3333ms ease-in-out 903ms forwards;}.PrrHTxEg_33{stroke-dasharray:78 80;stroke-dashoffset:79;}.start .PrrHTxEg_33{animation:PrrHTxEg_draw 3333ms ease-in-out 932ms forwards;}.PrrHTxEg_34{stroke-dasharray:143 145;stroke-dashoffset:144;}.start .PrrHTxEg_34{animation:PrrHTxEg_draw 3333ms ease-in-out 960ms forwards;}.PrrHTxEg_35{stroke-dasharray:85 87;stroke-dashoffset:86;}.start .PrrHTxEg_35{animation:PrrHTxEg_draw 3333ms ease-in-out 988ms forwards;}.PrrHTxEg_36{stroke-dasharray:35 37;stroke-dashoffset:36;}.start .PrrHTxEg_36{animation:PrrHTxEg_draw 3333ms ease-in-out 1016ms forwards;}.PrrHTxEg_37{stroke-dasharray:144 146;stroke-dashoffset:145;}.start .PrrHTxEg_37{animation:PrrHTxEg_draw 3333ms ease-in-out 1045ms forwards;}.PrrHTxEg_38{stroke-dasharray:120 122;stroke-dashoffset:121;}.start .PrrHTxEg_38{animation:PrrHTxEg_draw 3333ms ease-in-out 1073ms forwards;}.PrrHTxEg_39{stroke-dasharray:132 134;stroke-dashoffset:133;}.start .PrrHTxEg_39{animation:PrrHTxEg_draw 3333ms ease-in-out 1101ms forwards;}.PrrHTxEg_40{stroke-dasharray:129 131;stroke-dashoffset:130;}.start .PrrHTxEg_40{animation:PrrHTxEg_draw 3333ms ease-in-out 1129ms forwards;}.PrrHTxEg_41{stroke-dasharray:216 218;stroke-dashoffset:217;}.start .PrrHTxEg_41{animation:PrrHTxEg_draw 3333ms ease-in-out 1158ms forwards;}.PrrHTxEg_42{stroke-dasharray:207 209;stroke-dashoffset:208;}.start .PrrHTxEg_42{animation:PrrHTxEg_draw 3333ms ease-in-out 1186ms forwards;}.PrrHTxEg_43{stroke-dasharray:173 175;stroke-dashoffset:174;}.start .PrrHTxEg_43{animation:PrrHTxEg_draw 3333ms ease-in-out 1214ms forwards;}.PrrHTxEg_44{stroke-dasharray:178 180;stroke-dashoffset:179;}.start .PrrHTxEg_44{animation:PrrHTxEg_draw 3333ms ease-in-out 1242ms forwards;}.PrrHTxEg_45{stroke-dasharray:157 159;stroke-dashoffset:158;}.start .PrrHTxEg_45{animation:PrrHTxEg_draw 3333ms ease-in-out 1271ms forwards;}.PrrHTxEg_46{stroke-dasharray:144 146;stroke-dashoffset:145;}.start .PrrHTxEg_46{animation:PrrHTxEg_draw 3333ms ease-in-out 1299ms forwards;}.PrrHTxEg_47{stroke-dasharray:231 233;stroke-dashoffset:232;}.start .PrrHTxEg_47{animation:PrrHTxEg_draw 3333ms ease-in-out 1327ms forwards;}.PrrHTxEg_48{stroke-dasharray:2095 2097;stroke-dashoffset:2096;}.start .PrrHTxEg_48{animation:PrrHTxEg_draw 3333ms ease-in-out 1355ms forwards;}.PrrHTxEg_49{stroke-dasharray:547 549;stroke-dashoffset:548;}.start .PrrHTxEg_49{animation:PrrHTxEg_draw 3333ms ease-in-out 1384ms forwards;}.PrrHTxEg_50{stroke-dasharray:2600 2602;stroke-dashoffset:2601;}.start .PrrHTxEg_50{animation:PrrHTxEg_draw 3333ms ease-in-out 1412ms forwards;}.PrrHTxEg_51{stroke-dasharray:1452 1454;stroke-dashoffset:1453;}.start .PrrHTxEg_51{animation:PrrHTxEg_draw 3333ms ease-in-out 1440ms forwards;}.PrrHTxEg_52{stroke-dasharray:4916 4918;stroke-dashoffset:4917;}.start .PrrHTxEg_52{animation:PrrHTxEg_draw 3333ms ease-in-out 1468ms forwards;}.PrrHTxEg_53{stroke-dasharray:581 583;stroke-dashoffset:582;}.start .PrrHTxEg_53{animation:PrrHTxEg_draw 3333ms ease-in-out 1497ms forwards;}.PrrHTxEg_54{stroke-dasharray:61 63;stroke-dashoffset:62;}.start .PrrHTxEg_54{animation:PrrHTxEg_draw 3333ms ease-in-out 1525ms forwards;}.PrrHTxEg_55{stroke-dasharray:53 55;stroke-dashoffset:54;}.start .PrrHTxEg_55{animation:PrrHTxEg_draw 3333ms ease-in-out 1553ms forwards;}.PrrHTxEg_56{stroke-dasharray:146 148;stroke-dashoffset:147;}.start .PrrHTxEg_56{animation:PrrHTxEg_draw 3333ms ease-in-out 1581ms forwards;}.PrrHTxEg_57{stroke-dasharray:814 816;stroke-dashoffset:815;}.start .PrrHTxEg_57{animation:PrrHTxEg_draw 3333ms ease-in-out 1610ms forwards;}.PrrHTxEg_58{stroke-dasharray:635 637;stroke-dashoffset:636;}.start .PrrHTxEg_58{animation:PrrHTxEg_draw 3333ms ease-in-out 1638ms forwards;}.PrrHTxEg_59{stroke-dasharray:233 235;stroke-dashoffset:234;}.start .PrrHTxEg_59{animation:PrrHTxEg_draw 3333ms ease-in-out 1666ms forwards;}@keyframes PrrHTxEg_draw{100%{stroke-dashoffset:0;}}@keyframes PrrHTxEg_fade{0%{stroke-opacity:1;}95.65217391304348%{stroke-opacity:1;}100%{stroke-opacity:0;}}</style></svg>
